<svg width="55" height="21" viewBox="0 0 55 21" fill="none" xmlns="http://www.w3.org/2000/svg">
<path d="M34.8041 2.32144V17.3833H32.2191V4.35859H27.6047V17.3833H25.0198V2.32144H34.8041Z" fill="white"/>
<path d="M39.1326 17.6C37.9932 17.6 37.1174 17.3761 36.5049 16.9282V14.826C36.8325 15.0572 37.1886 15.2378 37.5731 15.3678C37.9719 15.4979 38.4419 15.5629 38.9831 15.5629C39.7949 15.5629 40.4073 15.3245 40.8203 14.8477C41.2333 14.3565 41.4897 13.6847 41.5894 12.8322H37.8508V10.7951H41.568C41.3259 9.13359 40.4856 8.30284 39.0472 8.30284C38.6057 8.30284 38.1641 8.37508 37.7226 8.51956C37.2954 8.66404 36.9536 8.81574 36.6972 8.97466V6.78582C36.9678 6.64134 37.331 6.51853 37.7867 6.4174C38.2425 6.31626 38.7908 6.2657 39.4317 6.2657C40.2292 6.2657 40.9271 6.41018 41.5253 6.69913C42.1377 6.97364 42.6433 7.36373 43.0421 7.86941C43.4551 8.36063 43.7613 8.96021 43.9607 9.66816C44.1743 10.3617 44.2811 11.1202 44.2811 11.9437C44.2811 13.7786 43.8539 15.18 42.9993 16.148C42.1591 17.116 40.8701 17.6 39.1326 17.6Z" fill="white"/>
<path d="M50.3232 5.05208C49.2978 5.05208 48.5216 4.79202 47.9946 4.2719C47.4819 3.75178 47.2256 3.10162 47.2256 2.32144H49.3619C49.3619 2.69709 49.4473 2.97159 49.6182 3.14497C49.8034 3.31834 50.0384 3.40503 50.3232 3.40503C50.5938 3.40503 50.8075 3.31834 50.9641 3.14497C51.1208 2.95715 51.1991 2.68264 51.1991 2.32144H53.3354C53.3354 2.69709 53.2713 3.05106 53.1432 3.38336C53.015 3.71566 52.8227 4.00461 52.5664 4.25023C52.3242 4.49584 52.0109 4.69088 51.6264 4.83536C51.2561 4.97984 50.8217 5.05208 50.3232 5.05208ZM48.4433 6.48241V13.244L52.3314 6.48241H54.5958V17.3833H52.1391V10.6434L48.251 17.3833H45.9865V6.48241H48.4433Z" fill="white"/>
<rect y="0.0613708" width="19.7436" height="20" rx="9.8718" fill="#FC3F1D"/>
<path d="M11.2631 16.0714H13.3255V4.07135H10.3256C7.30867 4.07135 5.7235 5.64257 5.7235 7.95624C5.7235 9.80373 6.59279 10.8915 8.14387 12.0138L5.45078 16.0714H7.68366L10.6835 11.5303L9.64381 10.8224C8.38249 9.95912 7.76888 9.28574 7.76888 7.83538C7.76888 6.55768 8.65521 5.69437 10.3426 5.69437H11.2631V16.0714Z" fill="white"/>
</svg>
