<svg width="51" height="20" viewBox="0 0 51 20" fill="none" xmlns="http://www.w3.org/2000/svg">
<g clip-path="url(#clip0_9_6355)">
<mask id="mask0_9_6355" style="mask-type:luminance" maskUnits="userSpaceOnUse" x="0" y="0" width="19" height="19">
<path d="M18.2115 0.707306H0.0537186V18.8142H18.2115V0.707306Z" fill="white"/>
</mask>
<g mask="url(#mask0_9_6355)">
<path d="M9.13258 18.8143C14.1467 18.8143 18.2115 14.7609 18.2115 9.76079C18.2115 4.76069 14.1467 0.707306 9.13258 0.707306C4.11843 0.707306 0.0536652 4.76069 0.0536652 9.76079C0.0536652 14.7609 4.11843 18.8143 9.13258 18.8143Z" fill="#FC3F1D"/>
<path d="M9.37878 10.696C9.90935 11.8548 10.0862 12.2579 10.0862 13.6498V15.4951H8.19146V12.3839L4.61672 4.63098H6.59355L9.37878 10.696ZM11.7156 4.63098L9.39775 9.88358H11.3241L13.6483 4.63098H11.7156Z" fill="white"/>
</g>
<path d="M26.6897 2.98494C28.3159 2.98494 29.5683 3.35764 30.4469 4.10304C31.3255 4.84844 31.7649 5.91423 31.7649 7.3004C31.7649 8.05892 31.6402 8.71932 31.3911 9.2816C31.155 9.83086 30.8141 10.2886 30.3682 10.6547C29.9355 11.0209 29.4043 11.2955 28.7748 11.4786C28.1454 11.6617 27.4438 11.7532 26.6701 11.7532H25.5095V16.6179H23.1293V2.98494H26.6897ZM26.6897 9.90932C27.5159 9.90932 28.1651 9.70012 28.6371 9.2816C29.1093 8.86315 29.3453 8.20275 29.3453 7.3004C29.3453 6.43732 29.1224 5.8096 28.6765 5.41731C28.2437 5.02499 27.6077 4.82883 26.7684 4.82883H25.5095V9.90932H26.6897ZM38.1931 12.1259H37.8587C36.8489 12.1259 36.1277 12.2436 35.6949 12.479C35.2621 12.7013 35.0457 13.0937 35.0457 13.6559C35.0457 14.0745 35.1638 14.4145 35.3998 14.676C35.649 14.9245 36.0227 15.0487 36.521 15.0487C36.9407 15.0487 37.2882 14.9767 37.5636 14.8329C37.839 14.676 38.0488 14.4863 38.1931 14.2641V12.1259ZM40.5339 14.2052C40.5339 15.016 40.5732 15.8202 40.6519 16.6179H38.3701C38.3308 16.5133 38.2914 16.3891 38.2521 16.2453C38.2259 16.1014 38.2062 15.9641 38.1931 15.8333H38.0947C37.8718 16.0687 37.5833 16.2845 37.2292 16.4806C36.8751 16.6637 36.3572 16.7553 35.6752 16.7553C34.7704 16.7553 34.036 16.4872 33.472 15.951C32.9212 15.4149 32.6459 14.6433 32.6459 13.6363C32.6459 12.6294 33.0589 11.8513 33.8851 11.3021C34.7113 10.7397 36.0227 10.4586 37.8194 10.4586H38.1931V9.90932C38.1931 9.37314 38.0619 9.00046 37.7997 8.79126C37.5374 8.56892 37.1243 8.45777 36.5604 8.45777C36.2588 8.45777 35.9506 8.49046 35.6359 8.55583C35.3211 8.60817 35.0195 8.68006 34.731 8.7716C34.4556 8.86315 34.1933 8.96777 33.9442 9.08549C33.7081 9.20315 33.5114 9.32086 33.3541 9.43857V7.49657C33.7081 7.28737 34.1802 7.08463 34.7704 6.88852C35.3605 6.69235 36.049 6.59423 36.8358 6.59423C38.0816 6.59423 39.0062 6.84275 39.6094 7.33966C40.2258 7.83657 40.5339 8.68663 40.5339 9.88972V14.2052ZM43.675 19.6584C43.4389 19.6584 43.2422 19.6388 43.0849 19.5995C42.9275 19.5734 42.7963 19.5407 42.6914 19.5015C42.5734 19.4492 42.475 19.3903 42.3964 19.3249V17.4222C42.6586 17.6838 43.0127 17.8145 43.4586 17.8145C43.7865 17.8145 44.0488 17.7426 44.2454 17.5987C44.4421 17.468 44.6061 17.2849 44.7372 17.0495L41.3341 6.7512H43.793L45.9765 14.1856L48.16 6.7512H50.4221L47.3338 16.0883C47.1633 16.5983 46.9797 17.0691 46.783 17.5007C46.5863 17.9322 46.3502 18.3049 46.0748 18.6188C45.7994 18.9457 45.4651 19.2007 45.0716 19.3838C44.6913 19.5669 44.2258 19.6584 43.675 19.6584Z" fill="white"/>
</g>
<defs>
<clipPath id="clip0_9_6355">
<rect width="51" height="20" fill="white"/>
</clipPath>
</defs>
</svg>
