<svg width="54" height="20" viewBox="0 0 54 20" fill="none" xmlns="http://www.w3.org/2000/svg">
<g clip-path="url(#clip0_4_11)">
<path d="M28.4329 2.16667C30.1686 2.16667 31.5055 2.55084 32.4433 3.31919C33.3812 4.08753 33.8502 5.18613 33.8502 6.61499C33.8502 7.39681 33.7172 8.07754 33.4512 8.65714C33.1993 9.22334 32.8353 9.69514 32.3594 10.0725C31.8975 10.4499 31.3305 10.7331 30.6586 10.9217C29.9867 11.1105 29.2377 11.2048 28.4119 11.2048H27.173V16.2193H24.6324V2.16667H28.4329ZM28.4329 9.3042C29.3147 9.3042 30.0077 9.08854 30.5116 8.65714C31.0155 8.2258 31.2675 7.54507 31.2675 6.61499C31.2675 5.72533 31.0295 5.0783 30.5536 4.67391C30.0916 4.26951 29.4128 4.06732 28.5168 4.06732H27.173V9.3042H28.4329Z" fill="black"/>
<path d="M40.7118 11.589H40.3549C39.277 11.589 38.5071 11.7103 38.0452 11.9529C37.5832 12.1821 37.3523 12.5865 37.3523 13.1661C37.3523 13.5975 37.4783 13.9479 37.7302 14.2175C37.9962 14.4737 38.3952 14.6017 38.9271 14.6017C39.375 14.6017 39.746 14.5276 40.04 14.3793C40.3339 14.2175 40.5579 14.0221 40.7118 13.7929V11.589ZM43.2105 13.7323C43.2105 14.568 43.2525 15.397 43.3365 16.2193H40.9008C40.8588 16.1115 40.8169 15.9834 40.7748 15.8351C40.7469 15.6869 40.7258 15.5453 40.7118 15.4105H40.6069C40.3689 15.6531 40.0609 15.8755 39.683 16.0777C39.305 16.2665 38.7521 16.3608 38.0242 16.3608C37.0583 16.3608 36.2744 16.0845 35.6725 15.5318C35.0846 14.9791 34.7906 14.1839 34.7906 13.1459C34.7906 12.108 35.2315 11.3059 36.1135 10.7398C36.9953 10.1601 38.3952 9.87033 40.3129 9.87033H40.7118V9.3042C40.7118 8.75153 40.5719 8.36733 40.2919 8.15166C40.0119 7.92253 39.571 7.80793 38.9691 7.80793C38.6471 7.80793 38.3182 7.84166 37.9822 7.90906C37.6462 7.96293 37.3243 8.03706 37.0163 8.13146C36.7223 8.2258 36.4424 8.33366 36.1765 8.45493C35.9245 8.57626 35.7145 8.6976 35.5465 8.81893V6.8172C35.9245 6.6015 36.4284 6.39256 37.0583 6.19036C37.6883 5.98817 38.4231 5.88707 39.263 5.88707C40.5928 5.88707 41.5797 6.14318 42.2236 6.65542C42.8815 7.16766 43.2105 8.0438 43.2105 9.284V13.7323Z" fill="black"/>
<path d="M46.5634 19.3533C46.3114 19.3533 46.1015 19.3331 45.9334 19.2927C45.7655 19.2657 45.6255 19.232 45.5135 19.1916C45.3876 19.1377 45.2825 19.077 45.1985 19.0096V17.0483C45.4785 17.3179 45.8565 17.4527 46.3324 17.4527C46.6824 17.4527 46.9623 17.3785 47.1723 17.2303C47.3822 17.0955 47.5572 16.9067 47.6972 16.6641L44.0647 6.04883H46.6894L49.02 13.7121L51.3507 6.04883H53.7654L50.4689 15.6733C50.2869 16.1991 50.0909 16.6843 49.8809 17.1292C49.6709 17.574 49.419 17.9582 49.125 18.2817C48.8311 18.6187 48.4741 18.8815 48.0542 19.0703C47.6482 19.259 47.1513 19.3533 46.5634 19.3533Z" fill="black"/>
<path d="M19.3846 9.39063C19.3846 4.23597 15.0452 0.0572968 9.69231 0.0572968C4.33939 0.0572968 0 4.23597 0 9.39063C0 14.5453 4.33939 18.724 9.69231 18.724C15.0452 18.724 19.3846 14.5453 19.3846 9.39063Z" fill="#FC3F1D"/>
<path d="M9.95525 10.3549C10.5216 11.5495 10.7104 11.9651 10.7104 13.4V15.3024H8.68763V12.0949L4.87142 4.10237H6.98178L9.95525 10.3549ZM12.45 4.10237L9.97546 9.51733H12.032L14.5132 4.10237H12.45Z" fill="white"/>
</g>
<defs>
<clipPath id="clip0_4_11">
<rect width="54" height="20" fill="white"/>
</clipPath>
</defs>
</svg>
