<svg width="54" height="20" viewBox="0 0 54 20" fill="none" xmlns="http://www.w3.org/2000/svg">
<path d="M34.2043 2.24138V16.7839H31.6664V4.20828H27.1358V16.7839H24.5979V2.24138H34.2043Z" fill="black"/>
<path d="M38.4542 16.9931C37.3355 16.9931 36.4756 16.7769 35.8743 16.3444V14.3148C36.1959 14.538 36.5455 14.7123 36.923 14.8379C37.3145 14.9634 37.776 15.0262 38.3073 15.0262C39.1044 15.0262 39.7057 14.7961 40.1111 14.3357C40.5167 13.8614 40.7683 13.2128 40.8662 12.3897H37.1957V10.4228H40.8453C40.6075 8.81861 39.7826 8.01655 38.3703 8.01655C37.9367 8.01655 37.5033 8.08627 37.0698 8.22579C36.6503 8.36524 36.3147 8.51172 36.063 8.66517V6.55181C36.3287 6.41231 36.6853 6.29374 37.1328 6.19609C37.5802 6.09844 38.1185 6.04962 38.7478 6.04962C39.5308 6.04962 40.216 6.18912 40.8033 6.46811C41.4046 6.73315 41.901 7.10979 42.2925 7.59799C42.698 8.07234 42.9987 8.65124 43.1944 9.33475C43.4042 10.0043 43.5091 10.7367 43.5091 11.5318C43.5091 13.3034 43.0896 14.6565 42.2506 15.5912C41.4255 16.5258 40.1601 16.9931 38.4542 16.9931Z" fill="black"/>
<path d="M49.4413 4.87785C48.4345 4.87785 47.6724 4.62677 47.155 4.12458C46.6516 3.62239 46.4 2.99466 46.4 2.24138H48.4974C48.4974 2.60407 48.5813 2.86911 48.7491 3.03651C48.9309 3.2039 49.1616 3.2876 49.4413 3.2876C49.707 3.2876 49.9167 3.2039 50.0705 3.03651C50.2244 2.85516 50.3013 2.59012 50.3013 2.24138H52.3987C52.3987 2.60407 52.3358 2.94583 52.21 3.26668C52.0841 3.58752 51.8953 3.86651 51.6437 4.10365C51.4059 4.3408 51.0983 4.52912 50.7207 4.66861C50.3572 4.80811 49.9307 4.87785 49.4413 4.87785ZM47.5955 6.25887V12.7873L51.4129 6.25887H53.6363V16.7839H51.2241V10.2763L47.4067 16.7839H45.1834V6.25887H47.5955Z" fill="black"/>
<path d="M19.3846 9.71444C19.3846 4.38203 15.0452 0.0592651 9.69231 0.0592651C4.33939 0.0592651 0 4.38203 0 9.71444C0 15.0468 4.33939 19.3696 9.69231 19.3696C15.0452 19.3696 19.3846 15.0468 19.3846 9.71444Z" fill="#FC3F1D"/>
<path d="M11.0582 15.5172H13.0832V3.931H10.1378C7.17577 3.931 5.6194 5.44804 5.6194 7.68193C5.6194 9.46572 6.47287 10.516 7.99574 11.5996L5.35163 15.5172H7.54394L10.4892 11.1328L9.46842 10.4493C8.23002 9.61572 7.62757 8.96559 7.62757 7.56524C7.62757 6.3316 8.4978 5.49805 10.1546 5.49805H11.0582V15.5172Z" fill="white"/>
</svg>
