<svg width="74" height="20" viewBox="0 0 74 20" fill="none" xmlns="http://www.w3.org/2000/svg">
<path d="M27.9299 17.7166C26.081 17.7166 24.6221 17.0449 23.5532 15.7016C22.4843 14.3438 21.9499 12.4371 21.9499 9.98158C21.9499 7.58379 22.4771 5.69156 23.5315 4.30489C24.6004 2.91822 26.1316 2.22488 28.1249 2.22488C28.8182 2.22488 29.4393 2.326 29.9882 2.52822C30.5371 2.716 30.9849 2.93266 31.3316 3.17822V5.2799C30.9416 5.03434 30.4793 4.80323 29.9449 4.58656C29.4105 4.36989 28.8471 4.26156 28.2549 4.26156C26.9838 4.26156 26.0593 4.73101 25.4815 5.6699C24.9038 6.60879 24.6149 8.04602 24.6149 9.98158C24.6149 11.8594 24.9038 13.2821 25.4815 14.2499C26.0593 15.2033 26.9404 15.6799 28.1249 15.6799C28.8182 15.6799 29.4177 15.5788 29.9232 15.3766C30.4288 15.1599 30.8982 14.8927 31.3316 14.5749V16.6766C30.9994 16.9077 30.5516 17.1388 29.9882 17.3699C29.4249 17.6011 28.7388 17.7166 27.9299 17.7166Z" fill="white"/>
<path d="M32.9627 6.60157H41.456V17.4999H38.8777V8.63824H35.541V17.4999H32.9627V6.60157Z" fill="white"/>
<path d="M42.7601 15.2683C42.7601 15.2683 42.8107 15.3044 42.9118 15.3766C43.0129 15.4344 43.1573 15.4633 43.3451 15.4633C43.764 15.4633 44.0384 15.2466 44.1685 14.8133C44.2985 14.3799 44.3851 13.5855 44.4285 12.4299L44.6451 6.60157H52.0335V17.4999H49.4551V8.63824H46.8335L46.6818 12.5383C46.624 14.3438 46.4001 15.6583 46.0101 16.4816C45.6201 17.3049 44.8762 17.7166 43.7784 17.7166C43.4751 17.7166 43.2296 17.6805 43.0418 17.6083C42.854 17.5361 42.7601 17.4999 42.7601 17.4999V15.2683Z" fill="white"/>
<path d="M54.2063 6.60157H56.7196V13.3399L60.7063 6.60157H62.938V17.4999H60.4246V10.7616L56.4379 17.4999H54.2063V6.60157Z" fill="white"/>
<path d="M73.0981 8.63824H70.0648V17.4999H67.4865V8.63824H64.4531V6.60157H73.0981V8.63824Z" fill="white"/>
<g clip-path="url(#clip0_9_4933)">
<path d="M10.0314 10.0479L17.0565 17.2418L16.9132 17.3724L16.8527 17.4297C14.8856 19.1844 12.308 20.0963 9.67514 19.9691C7.04225 19.8418 4.56463 18.6856 2.77588 16.7495C0.987119 14.8133 0.0303168 12.2521 0.111524 9.61741C0.192731 6.9827 1.30545 4.48526 3.21005 2.66295C5.16826 0.87093 7.75365 -0.0774363 10.4062 0.0232991C13.0587 0.124035 15.5647 1.26576 17.3813 3.20114L10.0314 10.0479Z" fill="#01B94F"/>
<path d="M3.21641 2.65982C5.17433 0.869365 7.75875 -0.077755 10.41 0.0235728C13.0612 0.124901 15.5658 1.26652 17.3813 3.20119C17.3813 3.20119 11.5377 8.67226 11.4198 8.7678C11.4198 8.7678 10.111 10.0002 10.1205 10.0193C10.1301 10.0384 17.0437 17.2132 17.0437 17.2132L16.9036 17.347L16.8431 17.4043C12.7159 21.0347 6.39141 20.8691 2.65593 16.8311C0.862025 14.8723 -0.0855647 12.2842 0.0194051 9.6301C0.124375 6.97603 1.27341 4.47085 3.21641 2.65982V2.65982Z" fill="url(#paint0_radial_9_4933)"/>
<path d="M3.21955 2.65354C5.17904 0.865454 7.76359 -0.0795123 10.4143 0.0229888C13.065 0.12549 15.5689 1.26722 17.3844 3.20129C17.3844 3.20129 11.6968 8.55134 11.4644 8.73923C11.4644 8.73923 10.1905 9.95573 10.2128 9.99395C10.2606 10.1086 17.0341 17.1815 17.0341 17.1815L16.894 17.3152L16.8335 17.3726C12.7159 20.9966 6.38818 20.8183 2.66544 16.793C0.874223 14.8395 -0.0725991 12.2575 0.0311863 9.60917C0.134972 6.96085 1.28096 4.46081 3.21955 2.65354V2.65354Z" fill="url(#paint1_radial_9_4933)"/>
<path d="M3.226 2.65032C5.18558 0.864577 7.76898 -0.0786266 10.4182 0.0244568C13.0674 0.12754 15.5697 1.26864 17.3845 3.20125C17.3845 3.20125 11.8593 8.42711 11.5027 8.71053C11.5027 8.71053 10.2734 9.90793 10.2957 9.96525C10.369 10.1372 17.0215 17.1528 17.0215 17.1528L16.8782 17.2865L16.8177 17.3407C12.7128 20.9552 6.38827 20.7704 2.67189 16.7547C0.883567 14.8068 -0.0618155 12.2306 0.0419918 9.58832C0.145799 6.946 1.29037 4.45197 3.226 2.65032V2.65032Z" fill="url(#paint2_radial_9_4933)"/>
<path d="M3.22927 2.64708C5.18909 0.862706 7.77204 -0.0793375 10.4205 0.0243351C13.0689 0.128008 15.5703 1.26908 17.3846 3.20119C17.3846 3.20119 12.0186 8.29648 11.5441 8.68181C11.5441 8.68181 10.3531 9.86329 10.385 9.93972C10.4805 10.169 17.0088 17.1241 17.0088 17.1241L16.8687 17.2546C16.8687 17.2546 16.8082 17.3088 16.8082 17.312C12.7129 20.9137 6.38835 20.7163 2.68152 16.7165C0.896073 14.7744 -0.0484613 12.2049 0.0541642 9.56882C0.15679 6.93277 1.29824 4.44441 3.22927 2.64708V2.64708Z" fill="url(#paint3_radial_9_4933)"/>
<path d="M3.23552 2.64083C5.19583 0.859211 7.77788 -0.080513 10.4248 0.0243377C13.0716 0.129188 15.5713 1.27021 17.3845 3.20131C17.3845 3.20131 12.1809 8.18196 11.5854 8.65327C11.5854 8.65327 10.4326 9.81564 10.4708 9.91117C10.5918 10.1978 16.9992 17.0923 16.996 17.0955L16.8559 17.2261L16.7954 17.2834C12.7096 20.8692 6.38823 20.6686 2.69096 16.6784C0.908601 14.7413 -0.03461 12.1776 0.0674276 9.54726C0.169465 6.91695 1.30846 4.43396 3.23552 2.64083V2.64083Z" fill="url(#paint4_radial_9_4933)"/>
<path d="M3.23875 2.63759C5.1993 0.857344 7.78089 -0.0812219 10.427 0.0242178C13.0731 0.129657 15.5719 1.27066 17.3845 3.20126C17.3845 3.20126 12.3402 8.06089 11.6269 8.615C11.6269 8.615 10.5123 9.75826 10.56 9.8729C10.7033 10.2168 16.9865 17.0509 16.9865 17.0509L16.8464 17.2133L16.7858 17.2674C12.7064 20.8278 6.38827 20.6208 2.69737 16.6401C0.918284 14.7086 -0.0235223 12.1511 0.0779303 9.5271C0.179383 6.90306 1.31584 4.42597 3.23875 2.63759V2.63759Z" fill="url(#paint5_radial_9_4933)"/>
<path d="M3.24504 2.63438C5.20584 0.855508 7.78698 -0.0818995 10.4323 0.024129C13.0777 0.130157 15.5755 1.27113 17.3877 3.20123C17.3877 3.20123 12.5025 7.93985 11.6714 8.61498C11.6714 8.61498 10.5918 9.73912 10.6459 9.87287C10.8275 10.2582 16.9768 17.0349 16.9737 17.0349L16.8335 17.1655L16.773 17.2228C12.7064 20.7863 6.3882 20.5698 2.70685 16.6018C0.930244 14.6762 -0.0106879 12.1249 0.0901894 9.50692C0.191067 6.88888 1.32553 4.41757 3.24504 2.63438V2.63438Z" fill="url(#paint6_radial_9_4933)"/>
<path d="M3.24815 2.62794C5.2096 0.850841 7.79052 -0.0848507 10.4351 0.0223625C13.0797 0.129576 15.5764 1.27112 17.3876 3.20116C17.3876 3.20116 12.6617 7.81558 11.7127 8.57032C11.7127 8.57032 10.6713 9.67854 10.735 9.84414C10.9261 10.3027 16.964 17.0189 16.9608 17.0189C16.9577 17.0189 16.8303 17.1431 16.8207 17.1495L16.7602 17.2036C12.7031 20.7449 6.38494 20.522 2.71315 16.5763C0.934903 14.6554 -0.00768857 12.107 0.0926384 9.49134C0.192965 6.87567 1.328 4.40692 3.24815 2.62794V2.62794Z" fill="url(#paint7_radial_9_4933)"/>
<path d="M3.25466 2.62492C5.21619 0.850159 7.79596 -0.083776 10.439 0.0240187C13.0821 0.131813 15.5772 1.27272 17.3877 3.20132C17.3877 3.20132 12.8242 7.69473 11.7542 8.54182C11.7542 8.54182 10.7511 9.63094 10.8243 9.81564C11.0377 10.3315 16.9514 16.9873 16.9514 16.9904L16.8113 17.121L16.7508 17.1752C12.7032 20.7164 6.38508 20.4839 2.73876 16.5382C0.962572 14.6246 0.0191175 12.0839 0.115862 9.47476C0.212607 6.86564 1.34163 4.40176 3.25466 2.62492V2.62492Z" fill="url(#paint8_radial_9_4933)"/>
<path d="M3.25776 2.62171C5.21954 0.848328 7.79885 -0.0844511 10.4411 0.0239323C13.0834 0.132316 15.5777 1.27321 17.3876 3.2013C17.3876 3.2013 12.9834 7.57051 11.7828 8.51314C11.7828 8.51314 10.8275 9.58634 10.8975 9.78696C11.1459 10.3506 16.9418 16.9458 16.9386 16.949L16.7985 17.0764C16.7985 17.0764 16.7444 17.1274 16.738 17.1337C12.7 20.6622 6.385 20.4202 2.72594 16.4968C1.84976 15.5509 1.16849 14.4416 0.721023 13.2324C0.27356 12.0231 0.0686709 10.7376 0.118056 9.44912C0.16744 8.16068 0.470132 6.89459 1.00884 5.72314C1.54756 4.55169 2.31174 3.49782 3.25776 2.62171V2.62171Z" fill="url(#paint9_radial_9_4933)"/>
<path d="M3.26425 2.6151C5.22651 0.844454 7.80492 -0.0860128 10.4457 0.0235476C13.0864 0.133108 15.5789 1.27396 17.3878 3.20106C17.3878 3.20106 13.1459 7.44926 11.8371 8.48424C11.8371 8.48424 10.9104 9.54151 10.9995 9.75806C11.2607 10.395 16.9292 16.9265 16.9292 16.9297L16.7891 17.0571L16.7286 17.1112C12.6969 20.6206 6.38512 20.3722 2.7388 16.452C0.973918 14.5473 0.0378111 12.0196 0.136348 9.42474C0.234886 6.82993 1.36 4.38049 3.26425 2.6151V2.6151Z" fill="url(#paint10_radial_9_4933)"/>
<path d="M3.26739 2.61216C5.23041 0.842684 7.80889 -0.0867146 10.4494 0.0234313C13.0899 0.133577 15.5821 1.27449 17.3909 3.2013C17.3909 3.2013 13.3051 7.34122 11.8784 8.459C11.8784 8.459 10.9931 9.49398 11.0855 9.73283C11.3721 10.4111 16.9196 16.8949 16.9164 16.8949L16.7763 17.0255L16.7158 17.0796C12.6969 20.5826 6.38507 20.3278 2.74831 16.4204C1.87488 15.4801 1.19541 14.3768 0.74874 13.1737C0.302073 11.9705 0.0969792 10.6911 0.14519 9.40866C0.193401 8.12619 0.49397 6.86581 1.02971 5.6996C1.56544 4.53339 2.32583 3.48424 3.26739 2.61216V2.61216Z" fill="url(#paint11_radial_9_4933)"/>
<path d="M3.27374 2.60878C5.23684 0.841644 7.81417 -0.0860023 10.4532 0.0247245C13.0922 0.135451 15.5827 1.27574 17.3909 3.20111C17.3909 3.20111 13.4675 7.20409 11.9198 8.43015C11.9198 8.43015 11.0727 9.44921 11.1746 9.70397C11.4931 10.4492 16.9068 16.866 16.9068 16.8692L16.7667 16.9998C16.7667 16.9998 16.7126 17.0476 16.7094 17.0539C12.6968 20.5569 6.38824 20.2799 2.75784 16.3852C-0.872555 12.4905 -0.691035 6.20414 3.27374 2.60878Z" fill="url(#paint12_radial_9_4933)"/>
<path d="M3.27688 2.60254C5.24062 0.837175 7.81773 -0.0887601 10.456 0.0231504C13.0942 0.135061 15.5836 1.27591 17.3908 3.20123C17.3908 3.20123 13.6267 7.07684 11.9771 8.39524C11.9771 8.39524 11.165 9.39519 11.2765 9.66906C11.6109 10.4716 16.9068 16.8279 16.9068 16.8311L16.7666 16.9585L16.7061 17.0126C12.6904 20.4934 6.36908 20.2227 2.76416 16.3375C-0.840753 12.4524 -0.678341 6.18835 3.27688 2.60254Z" fill="url(#paint13_radial_9_4933)"/>
<path d="M3.2833 2.59935C5.24711 0.836323 7.82308 -0.0878625 10.4598 0.0246287C13.0965 0.13712 15.5844 1.27735 17.3909 3.20123C17.3909 3.20123 13.7891 6.95901 12.0058 8.37295C12.0058 8.37295 11.2319 9.35698 11.3498 9.64677C11.7096 10.5034 16.8782 16.7993 16.8782 16.8025L16.738 16.9298L16.6775 16.984C12.6905 20.452 6.36913 20.1717 2.77058 16.2993C-0.827967 12.4269 -0.665555 6.17242 3.2833 2.59935Z" fill="url(#paint14_radial_9_4933)"/>
<path d="M3.28642 2.59613C5.25047 0.834471 7.82598 -0.0885626 10.4619 0.0245165C13.0978 0.137596 15.5849 1.27781 17.3908 3.2012C17.3908 3.2012 13.9483 6.83796 12.0471 8.34425C12.0471 8.34425 11.3115 9.29962 11.4389 9.61807C11.821 10.5257 16.8781 16.7706 16.8781 16.7738L16.7412 16.9011L16.6807 16.9553C12.6872 20.3978 6.36907 20.1239 2.78007 16.2579C-0.808925 12.3918 -0.656066 6.15965 3.28642 2.59613Z" fill="url(#paint15_radial_9_4933)"/>
<path d="M3.29288 2.58976C5.25829 0.831402 7.83325 -0.088908 10.4679 0.0253334C13.1026 0.139575 15.5883 1.27931 17.3941 3.20119C17.3941 3.20119 14.1108 6.70421 12.1014 8.31559C12.1014 8.31559 11.4039 9.27096 11.5377 9.58941C11.9326 10.5639 16.8782 16.7387 16.8591 16.7419L16.719 16.8693C16.7003 16.889 16.6801 16.9071 16.6585 16.9234C12.6873 20.3691 6.36916 20.0793 2.78973 16.2228C-0.789713 12.3663 -0.636855 6.14372 3.29288 2.58976Z" fill="url(#paint16_radial_9_4933)"/>
<path d="M3.29612 2.58653C5.26388 0.830821 7.84039 -0.0854647 10.4749 0.0335536C13.1093 0.152572 15.5927 1.29745 17.3941 3.22345C17.3941 3.22345 14.2701 6.59271 12.1301 8.29644C12.1301 8.29644 11.4709 9.22633 11.6142 9.57026C12.0441 10.6052 16.8496 16.7228 16.8464 16.726C16.8432 16.7291 16.7286 16.8374 16.7063 16.8533L16.649 16.9075C12.6842 20.3277 6.36922 20.022 2.79614 16.1846C-0.776927 12.3472 -0.636806 6.12776 3.29612 2.58653Z" fill="url(#paint17_radial_9_4933)"/>
<path d="M3.30237 2.58333C5.26943 0.828775 7.84472 -0.0868272 10.4779 0.0321864C13.1111 0.1512 15.5933 1.29539 17.394 3.22024C17.394 3.22024 14.4324 6.47804 12.1714 8.27094C12.1714 8.27094 11.5504 9.18172 11.7 9.54476C12.1554 10.6371 16.8399 16.6941 16.8335 16.6973L16.6966 16.8247L16.6361 16.8788C12.6809 20.2863 6.36909 19.9742 2.80558 16.1463C-0.757944 12.3185 -0.621008 6.11181 3.30237 2.58333Z" fill="url(#paint18_radial_9_4933)"/>
<path d="M3.30553 2.56432C5.27278 0.811496 7.84721 -0.103005 10.4794 0.0159894C13.1115 0.134984 15.5929 1.27805 17.394 3.20123C17.394 3.20123 14.5916 6.33802 12.2159 8.22327C12.2159 8.22327 11.63 9.11495 11.7892 9.4971C12.2669 10.6467 16.8272 16.6464 16.824 16.6496L16.6838 16.777L16.6233 16.828C12.6809 20.245 6.36908 19.9233 2.81193 16.1114C-0.74522 12.2995 -0.608284 6.09599 3.30553 2.56432Z" fill="url(#paint19_radial_9_4933)"/>
<path d="M3.31189 2.56422C5.27844 0.812563 7.85165 -0.101255 10.4825 0.017735C13.1134 0.136725 15.5936 1.2791 17.394 3.20113C15.8108 4.9963 14.0936 6.66875 12.2573 8.20407C12.2573 8.20407 11.7096 9.07982 11.8783 9.47789C12.3783 10.6848 16.8144 16.6209 16.8112 16.6272L16.6743 16.7514L16.6138 16.8056C12.6777 20.2035 6.36907 19.8755 2.82147 16.0731C-0.726126 12.2707 -0.598744 6.06723 3.31189 2.56422Z" fill="url(#paint20_radial_9_4933)"/>
<path d="M3.31509 2.56433C5.28199 0.813444 7.85504 -0.0998674 10.4857 0.0191115C13.1163 0.13809 15.5964 1.27995 17.3972 3.20125C15.8361 4.99152 14.1321 6.65189 12.3019 8.16597C12.3019 8.16597 11.7956 9.02261 11.9834 9.43979C12.5089 10.7136 16.824 16.5827 16.8176 16.5859L16.6807 16.7133L16.6202 16.7675C12.6777 20.159 6.36908 19.8246 2.82785 16.035C-0.71338 12.2454 -0.585997 6.06734 3.31509 2.56433Z" fill="url(#paint21_radial_9_4933)"/>
<path d="M3.32145 2.56429C5.28837 0.816095 7.85986 -0.0955252 10.4887 0.023427C13.1175 0.142379 15.5962 1.28251 17.3972 3.20121C15.8607 4.99276 14.1684 6.64458 12.3401 8.13727C12.3401 8.13727 11.872 8.978 12.0535 9.4111C12.6013 10.7454 16.7921 16.5764 16.7889 16.5764C16.7858 16.5764 16.6775 16.6814 16.6488 16.7037L16.5915 16.7547C12.6745 20.1176 6.36907 19.7609 2.8374 15.9968C-0.694278 12.2326 -0.576449 6.06731 3.32145 2.56429Z" fill="url(#paint22_radial_9_4933)"/>
<path d="M3.32464 2.56431C5.29139 0.817071 7.86218 -0.0939562 10.4903 0.0249881C13.1183 0.143932 15.5963 1.28346 17.3972 3.20122C15.8855 4.99602 14.206 6.64247 12.3815 8.11817C12.3815 8.11817 11.9516 8.93979 12.1395 9.392C12.7159 10.7709 16.7826 16.5318 16.7762 16.535L16.6393 16.6592L16.5788 16.7133C12.6713 20.0794 6.36908 19.7259 2.84696 15.9586C-0.675163 12.1912 -0.563703 6.03547 3.32464 2.56431Z" fill="url(#paint23_radial_9_4933)"/>
<path d="M3.32787 2.56432C5.29444 0.818047 7.86455 -0.0923873 10.4919 0.0265492C13.1192 0.145486 15.5965 1.28441 17.3972 3.20123C15.9114 4.99919 14.2434 6.63843 12.4198 8.09271C12.4198 8.09271 12.0281 8.89522 12.2255 9.36654C12.8242 10.8028 16.7667 16.4999 16.7635 16.5063L16.6234 16.6305L16.5629 16.6846C12.6714 20.0348 6.36912 19.6749 2.86611 15.9204C-0.636905 12.1658 -0.550922 6.01957 3.32787 2.56432Z" fill="url(#paint24_radial_9_4933)"/>
<path d="M3.33422 2.56438C5.30044 0.820031 7.86917 -0.0892189 10.4949 0.0297018C13.1207 0.148623 15.5967 1.28635 17.3972 3.20129C15.9392 4.99986 14.2858 6.63081 12.4675 8.06411C12.4675 8.06411 12.1109 8.85069 12.3179 9.33793C12.9548 10.8315 16.7762 16.4713 16.7539 16.4777L16.617 16.6019L16.5565 16.6529C12.6682 19.9935 6.3691 19.624 2.86608 15.8822C-0.63693 12.1403 -0.541393 6.0037 3.33422 2.56438Z" fill="url(#paint25_radial_9_4933)"/>
<path d="M3.33734 2.56431C5.30375 0.821681 7.87162 -0.0864763 10.4964 0.0324258C13.1211 0.151328 15.5964 1.28794 17.3972 3.20122C15.9685 5.00369 14.3271 6.62685 12.5089 8.03538C12.5089 8.03538 12.1904 8.80286 12.4038 9.3092C13.0407 10.8601 16.7475 16.4394 16.7412 16.4426C16.7348 16.4458 16.6361 16.5413 16.6042 16.5668L16.5437 16.6209C12.6681 19.952 6.36904 19.5762 2.86603 15.8439C-0.636985 12.1116 -0.52871 5.98771 3.33734 2.56431Z" fill="url(#paint26_radial_9_4933)"/>
<path d="M3.3437 2.5453C5.31234 0.806047 7.88093 -0.0981916 10.505 0.0242715C13.129 0.146735 15.6022 1.28627 17.4003 3.20132C17.4003 3.20132 15.8781 5.36682 12.5502 8.00682C12.5502 8.00682 12.27 8.75837 12.4929 9.28064C13.1617 10.8729 16.7348 16.4109 16.7316 16.414L16.5914 16.5382L16.5341 16.5924C12.6649 19.9107 6.36902 19.5254 2.86601 15.8058C-0.636995 12.0862 -0.519167 5.97189 3.3437 2.5453Z" fill="url(#paint27_radial_9_4933)"/>
<path d="M3.34695 2.53887C5.31658 0.802138 7.88478 -0.0999022 10.5078 0.0237314C13.1309 0.147365 15.6029 1.28697 17.4004 3.20126C17.4004 3.20126 16.0406 5.23301 12.5917 7.9781C12.4632 8.39298 12.4632 8.83703 12.5917 9.25192C13.286 10.9174 16.7316 16.3758 16.7316 16.3821L16.5947 16.5063L16.5342 16.5573C12.6618 19.8692 6.3691 19.4775 2.88838 15.7707C-0.592345 12.0639 -0.506361 5.95909 3.34695 2.53887Z" fill="url(#paint28_radial_9_4933)"/>
<path d="M3.35334 2.53566C5.32232 0.799723 7.88972 -0.101582 10.5117 0.0226522C13.1337 0.146887 15.6044 1.2869 17.4004 3.20123C17.4004 3.20123 16.1998 5.11197 12.6236 7.93667C12.5111 8.35564 12.5232 8.79834 12.6586 9.21049C13.3751 10.9556 16.7126 16.3566 16.7062 16.363L16.5693 16.4872L16.5119 16.5382C12.6618 19.8278 6.36912 19.4425 2.89477 15.7325C-0.579584 12.0225 -0.493601 5.94313 3.35334 2.53566Z" fill="url(#paint29_radial_9_4933)"/>
<path d="M3.35659 2.5325C5.32579 0.797922 7.89273 -0.102238 10.514 0.0225828C13.1352 0.147404 15.605 1.28741 17.4005 3.20125C17.4005 3.20125 16.3623 5.00053 12.6746 7.92395C12.5859 8.34797 12.6134 8.78809 12.7542 9.19777C13.4962 10.9779 16.7031 16.3184 16.6967 16.3248L16.5598 16.4458L16.4993 16.5C12.6587 19.7864 6.36918 19.3756 2.90438 15.6943C-0.614551 11.962 -0.483984 5.92723 3.35659 2.5325Z" fill="url(#paint30_radial_9_4933)"/>
<path d="M3.36283 2.5261C5.33283 0.795002 7.89869 -0.102374 10.5182 0.023609C13.1377 0.149592 15.6056 1.28906 17.4004 3.20123C17.4004 3.20123 16.5214 4.86675 12.7159 7.88252C12.6502 8.31108 12.694 8.74928 12.8433 9.15635C13.6076 10.9938 16.6902 16.277 16.6838 16.2802L16.5469 16.4044L16.4864 16.4553C12.6649 19.7195 6.37542 19.3214 2.91062 15.6337C-0.554178 11.946 -0.471379 5.91128 3.36283 2.5261Z" fill="url(#paint31_radial_9_4933)"/>
<path d="M3.36618 2.52281C5.33693 0.792871 7.90286 -0.103453 10.5221 0.0231126C13.1414 0.149678 15.6089 1.28923 17.4037 3.20112C17.4037 3.20112 16.684 4.74244 12.7606 7.85376C12.7176 8.28597 12.7765 8.72223 12.9326 9.12758C13.7192 11.0479 16.6776 16.2578 16.6713 16.2737L16.5343 16.3979L16.477 16.4489C12.6555 19.7003 6.36922 19.2768 2.92034 15.6209C-0.582667 11.9077 -0.45847 5.89525 3.36618 2.52281Z" fill="url(#paint32_radial_9_4933)"/>
<path d="M3.37248 2.51976C5.34293 0.791381 7.90788 -0.103711 10.5259 0.023444C13.1438 0.150599 15.61 1.29005 17.4036 3.20126C17.4036 3.20126 16.8432 4.63431 12.802 7.83797C12.7839 8.27307 12.8577 8.7071 13.0185 9.11179C13.8306 11.0767 16.668 16.2388 16.6616 16.2579L16.5247 16.379L16.4642 16.4299C12.6523 19.659 6.36915 19.2291 2.92665 15.5796C-0.566815 11.8792 -0.448986 5.87947 3.37248 2.51976Z" fill="url(#paint33_radial_9_4933)"/>
<path d="M3.37575 2.51332C5.34717 0.787459 7.91173 -0.105441 10.5287 0.022883C13.1457 0.151207 15.6106 1.29073 17.4037 3.20118C17.4037 3.20118 17.0057 4.51004 12.8434 7.80923C12.8503 8.25187 12.9399 8.68932 13.1078 9.09898C13.9453 11.1084 16.6553 16.2101 16.649 16.2165L16.512 16.3375L16.4547 16.3884C12.6524 19.6176 6.36923 19.1781 2.93628 15.5413C-0.550809 11.8536 -0.436165 5.86347 3.37575 2.51332Z" fill="url(#paint34_radial_9_4933)"/>
<path d="M3.38199 2.51022C5.35451 0.791145 7.9168 -0.0960562 10.53 0.0351979C13.1432 0.166452 15.6037 1.30593 17.394 3.21401C17.394 3.21401 17.1552 4.38911 12.8752 7.78066C12.9121 8.22477 13.0196 8.66014 13.1936 9.07041C14.0566 11.1404 16.6457 16.1815 16.6393 16.1879L16.5024 16.3089C16.4808 16.3241 16.4605 16.3412 16.4419 16.3599C12.6491 19.5763 6.36911 19.124 2.94571 15.5032C-0.53501 11.825 -0.426735 5.85082 3.38199 2.51022Z" fill="url(#paint35_radial_9_4933)"/>
<path d="M3.3851 2.50692C5.35768 0.78748 7.92038 -0.0996642 10.5338 0.0321964C13.1473 0.164057 15.6077 1.30464 17.3972 3.21389C17.3972 3.21389 17.3207 4.26798 12.9197 7.75188C12.9822 8.19646 13.1021 8.63106 13.2763 9.04481C14.168 11.1625 16.6329 16.1496 16.6265 16.1559L16.4896 16.2769C16.4705 16.2769 16.4482 16.3152 16.4291 16.3279C12.6458 19.5347 6.36904 19.0794 2.952 15.4649C-0.519164 11.7995 -0.414074 5.83478 3.3851 2.50692Z" fill="url(#paint36_radial_9_4933)"/>
<path d="M3.39146 2.50061C5.36552 0.783485 7.92835 -0.101565 10.5413 0.0314601C13.1543 0.164485 15.614 1.30523 17.4035 3.21395C17.4035 3.21395 17.4863 4.15658 12.9674 7.72647C13.06 8.16889 13.1965 8.60096 13.375 9.01621C14.2826 11.2008 16.6265 16.121 16.6169 16.1273C16.6074 16.1337 16.5246 16.2133 16.48 16.2483L16.4227 16.2993C12.649 19.4998 6.36902 19.0285 2.96155 15.4267C-0.506435 11.7709 -0.401344 5.81892 3.39146 2.50061Z" fill="url(#paint37_radial_9_4933)"/>
<path d="M3.39474 2.49743C5.36926 0.780347 7.93273 -0.104092 10.546 0.0301338C13.1592 0.16436 15.6186 1.30679 17.4068 3.21714C17.4068 3.21714 17.6488 4.02283 13.0121 7.69781C13.1311 8.13842 13.2801 8.5704 13.4579 8.99074C14.391 11.2199 16.6106 16.0923 16.6043 16.0987L16.4673 16.2197L16.4068 16.2706C12.6459 19.4425 6.36911 18.9775 2.96801 15.3917C-0.490415 11.7422 -0.391694 5.803 3.39474 2.49743Z" fill="url(#paint38_radial_9_4933)"/>
<path d="M3.40121 2.49423C5.37613 0.777547 7.93984 -0.106339 10.5531 0.0284816C13.1664 0.163302 15.6255 1.30632 17.4133 3.21712C17.4133 3.21712 17.8082 3.89862 13.0568 7.65958C13.0568 7.65958 13.2319 8.19458 13.5504 8.95251C14.5058 11.2518 16.6012 16.0541 16.5948 16.0604L16.4579 16.1814L16.4006 16.2292C12.6428 19.4106 6.36922 18.9297 2.97767 15.3535C-0.474395 11.7135 -0.378858 5.78706 3.40121 2.49423Z" fill="url(#paint39_radial_9_4933)"/>
<path d="M16.5789 16.0413C12.8593 19.3851 6.42971 18.9424 2.98402 15.3025C-0.461664 11.6625 -0.369312 5.74882 3.40439 2.47509C5.38044 0.759969 7.94445 -0.122319 10.5575 0.013678C13.1705 0.149675 15.6291 1.29336 17.4164 3.20436C17.4164 3.20436 17.9801 3.76484 13.1045 7.62771C13.095 7.64044 16.5916 16.0317 16.5789 16.0413Z" fill="url(#paint40_radial_9_4933)"/>
<path d="M12.9548 7.74802C11.4293 8.99955 9.55364 10.474 7.37222 12.1268C8.99275 13.8793 10.8774 15.3674 12.9579 16.5374C14.7445 17.4928 16.1425 17.6711 16.8272 17.066C17.5119 16.461 17.4291 15.0661 16.6329 13.2446C15.6903 11.2378 14.4503 9.38477 12.9548 7.74802V7.74802Z" fill="url(#paint41_linear_9_4933)"/>
<path d="M13.0917 7.62375L12.3274 8.26066C13.7268 9.79901 14.8902 11.5365 15.7794 13.4165C16.5597 15.2125 16.5405 16.1138 16.289 16.3399C16.0374 16.566 14.9515 16.6233 13.2159 15.703C11.2933 14.6127 9.55444 13.2263 8.06326 11.5949L7.2098 12.2318L7.41042 12.4261C11.0249 16.1615 14.9355 18.2888 16.6552 17.515C16.7061 17.4895 16.7571 17.464 16.8049 17.4354H16.824C16.8905 17.3941 16.9533 17.3472 17.0119 17.2952C17.0738 17.2392 17.1304 17.1773 17.1806 17.1105C18.3048 15.6361 16.5979 11.665 13.1968 7.77342L13.0917 7.62375Z" fill="#84EEB1"/>
</g>
<defs>
<radialGradient id="paint0_radial_9_4933" cx="0" cy="0" r="1" gradientUnits="userSpaceOnUse" gradientTransform="translate(12.569 1.13302) rotate(-2.29061) scale(45.8465 33.9271)">
<stop stop-color="#03BA50"/>
<stop offset="0.8" stop-color="#01B64E"/>
</radialGradient>
<radialGradient id="paint1_radial_9_4933" cx="0" cy="0" r="1" gradientUnits="userSpaceOnUse" gradientTransform="translate(12.5643 1.12942) rotate(-2.29061) scale(45.7508 33.8564)">
<stop stop-color="#04BC50"/>
<stop offset="0.8" stop-color="#01B34D"/>
</radialGradient>
<radialGradient id="paint2_radial_9_4933" cx="0" cy="0" r="1" gradientUnits="userSpaceOnUse" gradientTransform="translate(12.5535 1.13797) rotate(-2.29061) scale(45.6553 33.7856)">
<stop stop-color="#06BD51"/>
<stop offset="0.72" stop-color="#02B24C"/>
<stop offset="0.8" stop-color="#01B04B"/>
</radialGradient>
<radialGradient id="paint3_radial_9_4933" cx="0" cy="0" r="1" gradientUnits="userSpaceOnUse" gradientTransform="translate(12.5364 1.15231) rotate(-2.29061) scale(45.5597 33.7149)">
<stop stop-color="#08BF52"/>
<stop offset="0.56" stop-color="#04B44D"/>
<stop offset="0.8" stop-color="#01AD4A"/>
</radialGradient>
<radialGradient id="paint4_radial_9_4933" cx="0" cy="0" r="1" gradientUnits="userSpaceOnUse" gradientTransform="translate(12.5191 1.16625) rotate(-2.29061) scale(45.464 33.6441)">
<stop stop-color="#0AC053"/>
<stop offset="0.48" stop-color="#05B54E"/>
<stop offset="0.8" stop-color="#01AA49"/>
</radialGradient>
<radialGradient id="paint5_radial_9_4933" cx="0" cy="0" r="1" gradientUnits="userSpaceOnUse" gradientTransform="translate(12.4991 1.20062) rotate(-1.71836) scale(45.3494 33.5691)">
<stop stop-color="#0BC253"/>
<stop offset="0.42" stop-color="#07B74E"/>
<stop offset="0.8" stop-color="#01A848"/>
</radialGradient>
<radialGradient id="paint6_radial_9_4933" cx="0" cy="0" r="1" gradientUnits="userSpaceOnUse" gradientTransform="translate(12.4726 1.20929) rotate(-1.71836) scale(45.2538 33.4984)">
<stop stop-color="#0DC354"/>
<stop offset="0.37" stop-color="#08B84F"/>
<stop offset="0.8" stop-color="#01A546"/>
</radialGradient>
<radialGradient id="paint7_radial_9_4933" cx="0" cy="0" r="1" gradientUnits="userSpaceOnUse" gradientTransform="translate(12.8089 1.21811) rotate(-1.71836) scale(45.1582 33.4141)">
<stop stop-color="#0FC555"/>
<stop offset="0.33" stop-color="#0ABA50"/>
<stop offset="0.8" stop-color="#01A245"/>
</radialGradient>
<radialGradient id="paint8_radial_9_4933" cx="0" cy="0" r="1" gradientUnits="userSpaceOnUse" gradientTransform="translate(12.7755 1.23441) rotate(-1.70135) scale(45.5128 33.3434)">
<stop stop-color="#11C656"/>
<stop offset="0.3" stop-color="#0CBB51"/>
<stop offset="0.8" stop-color="#019F44"/>
</radialGradient>
<radialGradient id="paint9_radial_9_4933" cx="0" cy="0" r="1" gradientUnits="userSpaceOnUse" gradientTransform="translate(12.7642 1.25073) rotate(-1.70135) scale(45.4163 33.2727)">
<stop stop-color="#12C856"/>
<stop offset="0.28" stop-color="#0EBD51"/>
<stop offset="0.77" stop-color="#029E44"/>
<stop offset="0.8" stop-color="#019C43"/>
</radialGradient>
<radialGradient id="paint10_radial_9_4933" cx="0" cy="0" r="1" gradientUnits="userSpaceOnUse" gradientTransform="translate(12.7531 1.27256) rotate(-1.70135) scale(45.3166 33.1996)">
<stop stop-color="#14C957"/>
<stop offset="0.26" stop-color="#0FBE52"/>
<stop offset="0.72" stop-color="#049F44"/>
<stop offset="0.8" stop-color="#019941"/>
</radialGradient>
<radialGradient id="paint11_radial_9_4933" cx="0" cy="0" r="1" gradientUnits="userSpaceOnUse" gradientTransform="translate(12.7324 1.29986) rotate(-1.70136) scale(45.22 33.1289)">
<stop stop-color="#16CB58"/>
<stop offset="0.24" stop-color="#11C053"/>
<stop offset="0.66" stop-color="#06A145"/>
<stop offset="0.8" stop-color="#019640"/>
</radialGradient>
<radialGradient id="paint12_radial_9_4933" cx="0" cy="0" r="1" gradientUnits="userSpaceOnUse" gradientTransform="translate(12.7085 1.32919) rotate(-1.70135) scale(45.1235 33.0582)">
<stop stop-color="#18CC59"/>
<stop offset="0.23" stop-color="#13C154"/>
<stop offset="0.62" stop-color="#07A246"/>
<stop offset="0.8" stop-color="#01933F"/>
</radialGradient>
<radialGradient id="paint13_radial_9_4933" cx="0" cy="0" r="1" gradientUnits="userSpaceOnUse" gradientTransform="translate(12.6846 1.36457) rotate(-1.70135) scale(45.0237 32.9851)">
<stop stop-color="#19CD59"/>
<stop offset="0.21" stop-color="#15C254"/>
<stop offset="0.59" stop-color="#09A347"/>
<stop offset="0.8" stop-color="#01903E"/>
</radialGradient>
<radialGradient id="paint14_radial_9_4933" cx="0" cy="0" r="1" gradientUnits="userSpaceOnUse" gradientTransform="translate(12.6545 1.40237) rotate(-1.70135) scale(44.9272 32.9143)">
<stop stop-color="#1BCF5A"/>
<stop offset="0.2" stop-color="#17C455"/>
<stop offset="0.56" stop-color="#0BA547"/>
<stop offset="0.8" stop-color="#018D3C"/>
</radialGradient>
<radialGradient id="paint15_radial_9_4933" cx="0" cy="0" r="1" gradientUnits="userSpaceOnUse" gradientTransform="translate(12.6211 1.26397) rotate(-1.13442) scale(44.8197 32.8429)">
<stop stop-color="#1DD05B"/>
<stop offset="0.19" stop-color="#18C556"/>
<stop offset="0.54" stop-color="#0CA648"/>
<stop offset="0.8" stop-color="#018B3B"/>
</radialGradient>
<radialGradient id="paint16_radial_9_4933" cx="0" cy="0" r="1" gradientUnits="userSpaceOnUse" gradientTransform="translate(12.5846 1.29269) rotate(-1.13442) scale(44.7199 32.7698)">
<stop stop-color="#1ED25B"/>
<stop offset="0.18" stop-color="#1AC756"/>
<stop offset="0.51" stop-color="#0EA848"/>
<stop offset="0.8" stop-color="#01883A"/>
</radialGradient>
<radialGradient id="paint17_radial_9_4933" cx="0" cy="0" r="1" gradientUnits="userSpaceOnUse" gradientTransform="translate(12.5482 1.32061) rotate(-1.13442) scale(44.6234 32.6991)">
<stop stop-color="#20D35C"/>
<stop offset="0.18" stop-color="#1BC857"/>
<stop offset="0.49" stop-color="#0FA949"/>
<stop offset="0.8" stop-color="#018539"/>
</radialGradient>
<radialGradient id="paint18_radial_9_4933" cx="0" cy="0" r="1" gradientUnits="userSpaceOnUse" gradientTransform="translate(12.5052 1.35982) rotate(-1.13442) scale(44.527 32.6284)">
<stop stop-color="#22D55D"/>
<stop offset="0.17" stop-color="#1DCA58"/>
<stop offset="0.47" stop-color="#11AB4A"/>
<stop offset="0.8" stop-color="#018237"/>
</radialGradient>
<radialGradient id="paint19_radial_9_4933" cx="0" cy="0" r="1" gradientUnits="userSpaceOnUse" gradientTransform="translate(12.4559 1.39609) rotate(-1.13442) scale(44.4272 32.5553)">
<stop stop-color="#24D65E"/>
<stop offset="0.16" stop-color="#1FCB59"/>
<stop offset="0.45" stop-color="#13AC4B"/>
<stop offset="0.8" stop-color="#017F36"/>
</radialGradient>
<radialGradient id="paint20_radial_9_4933" cx="0" cy="0" r="1" gradientUnits="userSpaceOnUse" gradientTransform="translate(12.4035 1.4402) rotate(-1.13442) scale(44.3307 32.4846)">
<stop stop-color="#25D85E"/>
<stop offset="0.15" stop-color="#20CD59"/>
<stop offset="0.43" stop-color="#14AE4B"/>
<stop offset="0.79" stop-color="#017D36"/>
<stop offset="0.8" stop-color="#007C35"/>
</radialGradient>
<radialGradient id="paint21_radial_9_4933" cx="0" cy="0" r="1" gradientUnits="userSpaceOnUse" gradientTransform="translate(13.3674 1.49018) rotate(-1.13442) scale(44.2342 32.4052)">
<stop stop-color="#27D95F"/>
<stop offset="0.15" stop-color="#22CE5A"/>
<stop offset="0.42" stop-color="#16AF4C"/>
<stop offset="0.77" stop-color="#027E36"/>
<stop offset="0.8" stop-color="#007934"/>
</radialGradient>
<radialGradient id="paint22_radial_9_4933" cx="0" cy="0" r="1" gradientUnits="userSpaceOnUse" gradientTransform="translate(13.038 1.54161) rotate(-1.1233) scale(44.5713 32.3322)">
<stop stop-color="#29DB60"/>
<stop offset="0.14" stop-color="#24D05B"/>
<stop offset="0.4" stop-color="#18B14D"/>
<stop offset="0.74" stop-color="#048037"/>
<stop offset="0.8" stop-color="#007632"/>
</radialGradient>
<radialGradient id="paint23_radial_9_4933" cx="0" cy="0" r="1" gradientUnits="userSpaceOnUse" gradientTransform="translate(12.9991 1.59881) rotate(-1.1233) scale(44.4738 32.2615)">
<stop stop-color="#2BDC61"/>
<stop offset="0.14" stop-color="#26D15C"/>
<stop offset="0.39" stop-color="#1AB24E"/>
<stop offset="0.71" stop-color="#068138"/>
<stop offset="0.8" stop-color="#007331"/>
</radialGradient>
<radialGradient id="paint24_radial_9_4933" cx="0" cy="0" r="1" gradientUnits="userSpaceOnUse" gradientTransform="translate(12.9602 1.66163) rotate(-1.1233) scale(44.3731 32.1884)">
<stop stop-color="#2CDE61"/>
<stop offset="0.13" stop-color="#27D35C"/>
<stop offset="0.37" stop-color="#1BB44E"/>
<stop offset="0.69" stop-color="#088339"/>
<stop offset="0.8" stop-color="#007030"/>
</radialGradient>
<radialGradient id="paint25_radial_9_4933" cx="0" cy="0" r="1" gradientUnits="userSpaceOnUse" gradientTransform="translate(12.918 1.34285) rotate(-0.561705) scale(44.2693 32.1181)">
<stop stop-color="#2EDF62"/>
<stop offset="0.13" stop-color="#29D45D"/>
<stop offset="0.37" stop-color="#1DB54F"/>
<stop offset="0.67" stop-color="#098439"/>
<stop offset="0.8" stop-color="#006E2F"/>
</radialGradient>
<radialGradient id="paint26_radial_9_4933" cx="0" cy="0" r="1" gradientUnits="userSpaceOnUse" gradientTransform="translate(12.8693 1.39262) rotate(-0.561705) scale(44.1718 32.0474)">
<stop stop-color="#30E163"/>
<stop offset="0.13" stop-color="#2BD65E"/>
<stop offset="0.35" stop-color="#1FB750"/>
<stop offset="0.65" stop-color="#0B8639"/>
<stop offset="0.8" stop-color="#006B2D"/>
</radialGradient>
<radialGradient id="paint27_radial_9_4933" cx="0" cy="0" r="1" gradientUnits="userSpaceOnUse" gradientTransform="translate(12.8205 1.44813) rotate(-0.561706) scale(44.0711 31.9743)">
<stop stop-color="#31E263"/>
<stop offset="0.12" stop-color="#2CD75E"/>
<stop offset="0.34" stop-color="#20B850"/>
<stop offset="0.63" stop-color="#0D873A"/>
<stop offset="0.8" stop-color="#00682C"/>
</radialGradient>
<radialGradient id="paint28_radial_9_4933" cx="0" cy="0" r="1" gradientUnits="userSpaceOnUse" gradientTransform="translate(12.7654 1.5059) rotate(-0.561705) scale(43.9736 31.9036)">
<stop stop-color="#33E364"/>
<stop offset="0.12" stop-color="#2ED85F"/>
<stop offset="0.34" stop-color="#22B951"/>
<stop offset="0.62" stop-color="#0E883B"/>
<stop offset="0.8" stop-color="#00652B"/>
</radialGradient>
<radialGradient id="paint29_radial_9_4933" cx="0" cy="0" r="1" gradientUnits="userSpaceOnUse" gradientTransform="translate(12.707 1.56848) rotate(-0.561705) scale(43.873 31.8305)">
<stop stop-color="#35E565"/>
<stop offset="0.12" stop-color="#30DA60"/>
<stop offset="0.33" stop-color="#24BB52"/>
<stop offset="0.6" stop-color="#108A3C"/>
<stop offset="0.8" stop-color="#00622A"/>
</radialGradient>
<radialGradient id="paint30_radial_9_4933" cx="0" cy="0" r="1" gradientUnits="userSpaceOnUse" gradientTransform="translate(12.6486 1.6335) rotate(-0.561705) scale(43.7755 31.7598)">
<stop stop-color="#37E666"/>
<stop offset="0.11" stop-color="#32DB61"/>
<stop offset="0.32" stop-color="#26BC53"/>
<stop offset="0.59" stop-color="#128B3C"/>
<stop offset="0.8" stop-color="#005F28"/>
</radialGradient>
<radialGradient id="paint31_radial_9_4933" cx="0" cy="0" r="1" gradientUnits="userSpaceOnUse" gradientTransform="translate(12.5835 1.7041) rotate(-0.561705) scale(43.6748 31.6868)">
<stop stop-color="#38E866"/>
<stop offset="0.11" stop-color="#33DD61"/>
<stop offset="0.31" stop-color="#27BE53"/>
<stop offset="0.57" stop-color="#148D3D"/>
<stop offset="0.8" stop-color="#005C27"/>
</radialGradient>
<radialGradient id="paint32_radial_9_4933" cx="0" cy="0" r="1" gradientUnits="userSpaceOnUse" gradientTransform="translate(12.5154 1.77937) rotate(-0.561705) scale(43.5773 31.6161)">
<stop stop-color="#3AE967"/>
<stop offset="0.11" stop-color="#35DE62"/>
<stop offset="0.3" stop-color="#29BF54"/>
<stop offset="0.56" stop-color="#158E3E"/>
<stop offset="0.8" stop-color="#005926"/>
</radialGradient>
<radialGradient id="paint33_radial_9_4933" cx="0" cy="0" r="1" gradientUnits="userSpaceOnUse" gradientTransform="translate(12.4471 1.85731) rotate(-0.561705) scale(43.4799 31.5454)">
<stop stop-color="#3CEB68"/>
<stop offset="0.11" stop-color="#37E063"/>
<stop offset="0.29" stop-color="#2BC155"/>
<stop offset="0.54" stop-color="#17903F"/>
<stop offset="0.8" stop-color="#005625"/>
</radialGradient>
<radialGradient id="paint34_radial_9_4933" cx="0" cy="0" r="1" gradientUnits="userSpaceOnUse" gradientTransform="translate(12.3692 1.94067) rotate(-0.561705) scale(43.3792 31.4723)">
<stop stop-color="#3EEC69"/>
<stop offset="0.1" stop-color="#39E164"/>
<stop offset="0.29" stop-color="#2DC256"/>
<stop offset="0.53" stop-color="#19913F"/>
<stop offset="0.8" stop-color="#005323"/>
</radialGradient>
<radialGradient id="paint35_radial_9_4933" cx="0" cy="0" r="1" gradientUnits="userSpaceOnUse" gradientTransform="translate(12.2911 1.44524) scale(43.2797 31.3989)">
<stop stop-color="#3FEE69"/>
<stop offset="0.1" stop-color="#3AE364"/>
<stop offset="0.28" stop-color="#2EC456"/>
<stop offset="0.52" stop-color="#1A9340"/>
<stop offset="0.8" stop-color="#005122"/>
</radialGradient>
<radialGradient id="paint36_radial_9_4933" cx="0" cy="0" r="1" gradientUnits="userSpaceOnUse" gradientTransform="translate(13.3128 1.5148) scale(43.6023 31.3259)">
<stop stop-color="#41EF6A"/>
<stop offset="0.1" stop-color="#3CE465"/>
<stop offset="0.28" stop-color="#30C557"/>
<stop offset="0.51" stop-color="#1C9441"/>
<stop offset="0.79" stop-color="#015022"/>
<stop offset="0.8" stop-color="#004E21"/>
</radialGradient>
<radialGradient id="paint37_radial_9_4933" cx="0" cy="0" r="1" gradientUnits="userSpaceOnUse" gradientTransform="translate(13.2498 1.59008) scale(43.5071 31.2576)">
<stop stop-color="#43F16B"/>
<stop offset="0.1" stop-color="#3EE666"/>
<stop offset="0.27" stop-color="#32C758"/>
<stop offset="0.5" stop-color="#1E9642"/>
<stop offset="0.77" stop-color="#035223"/>
<stop offset="0.8" stop-color="#004B20"/>
</radialGradient>
<radialGradient id="paint38_radial_9_4933" cx="0" cy="0" r="1" gradientUnits="userSpaceOnUse" gradientTransform="translate(13.1901 1.67002) scale(43.4087 31.1869)">
<stop stop-color="#45F26C"/>
<stop offset="0.1" stop-color="#40E767"/>
<stop offset="0.27" stop-color="#34C859"/>
<stop offset="0.49" stop-color="#209742"/>
<stop offset="0.76" stop-color="#055323"/>
<stop offset="0.8" stop-color="#00481E"/>
</radialGradient>
<radialGradient id="paint39_radial_9_4933" cx="0" cy="0" r="1" gradientUnits="userSpaceOnUse" gradientTransform="translate(13.1271 1.75547) scale(43.3071 31.1138)">
<stop stop-color="#46F46C"/>
<stop offset="0.09" stop-color="#41E967"/>
<stop offset="0.26" stop-color="#35CA59"/>
<stop offset="0.48" stop-color="#229943"/>
<stop offset="0.74" stop-color="#065524"/>
<stop offset="0.8" stop-color="#00451D"/>
</radialGradient>
<radialGradient id="paint40_radial_9_4933" cx="0" cy="0" r="1" gradientUnits="userSpaceOnUse" gradientTransform="translate(13.0671 1.84563) scale(43.2054 31.0408)">
<stop stop-color="#48F56D"/>
<stop offset="0.09" stop-color="#43EA68"/>
<stop offset="0.25" stop-color="#37CB5A"/>
<stop offset="0.47" stop-color="#239A44"/>
<stop offset="0.73" stop-color="#085625"/>
<stop offset="0.8" stop-color="#00421C"/>
</radialGradient>
<linearGradient id="paint41_linear_9_4933" x1="13.77" y1="24.1644" x2="10.0441" y2="-2.55403" gradientUnits="userSpaceOnUse">
<stop offset="0.1" stop-color="#FF8475"/>
<stop offset="0.37" stop-color="#E84E43"/>
<stop offset="0.6" stop-color="#D6261F"/>
<stop offset="0.79" stop-color="#CC0E08"/>
<stop offset="0.9" stop-color="#C80500"/>
</linearGradient>
<clipPath id="clip0_9_4933">
<rect width="20" height="20" fill="white"/>
</clipPath>
</defs>
</svg>
