<svg width="74" height="20" viewBox="0 0 74 20" fill="none" xmlns="http://www.w3.org/2000/svg">
<g clip-path="url(#clip0_9_6417)">
<mask id="mask0_9_6417" style="mask-type:luminance" maskUnits="userSpaceOnUse" x="0" y="0" width="20" height="20">
<path d="M20 0H0V20H20V0Z" fill="white"/>
</mask>
<g mask="url(#mask0_9_6417)">
<path d="M10.0316 10.048L17.0567 17.2419L16.9134 17.3725L16.8529 17.4298C14.8858 19.1845 12.3082 20.0964 9.67533 19.9692C7.04243 19.8419 4.56482 18.6857 2.77606 16.7496C0.987305 14.8134 0.0305037 12.2522 0.111711 9.6175C0.192918 6.98279 1.30564 4.48536 3.21024 2.66304C5.16845 0.871021 7.75384 -0.0773448 10.4063 0.0233907C13.0589 0.124126 15.5649 1.26585 17.3815 3.20123L10.0316 10.048Z" fill="#01B94F"/>
<path d="M3.2166 2.65973C5.17452 0.869273 7.75894 -0.0778466 10.4101 0.0234813C13.0614 0.124809 15.5659 1.26643 17.3815 3.2011C17.3815 3.2011 11.5378 8.67217 11.42 8.76771C11.42 8.76771 10.1112 10.0001 10.1207 10.0192C10.1303 10.0383 17.0439 17.2132 17.0439 17.2132L16.9038 17.3469L16.8433 17.4042C12.7161 21.0346 6.3916 20.869 2.65612 16.831C0.862216 14.8722 -0.0853739 12.2841 0.0195958 9.63001C0.124566 6.97594 1.2736 4.47076 3.2166 2.65973Z" fill="url(#paint0_radial_9_6417)"/>
<path d="M3.21952 2.65348C5.179 0.865393 7.76355 -0.0795734 10.4143 0.0229277C13.065 0.125429 15.5689 1.26716 17.3844 3.20123C17.3844 3.20123 11.6968 8.55128 11.4643 8.73917C11.4643 8.73917 10.1905 9.95567 10.2128 9.99389C10.2606 10.1085 17.0341 17.1814 17.0341 17.1814L16.894 17.3152L16.8335 17.3725C12.7159 20.9965 6.38815 20.8182 2.6654 16.7929C0.874189 14.8395 -0.0726334 12.2574 0.0311519 9.60911C0.134937 6.96079 1.28092 4.46075 3.21952 2.65348Z" fill="url(#paint1_radial_9_6417)"/>
<path d="M3.22641 2.65035C5.18598 0.864607 7.76938 -0.0785961 10.4186 0.0244873C13.0678 0.127571 15.5701 1.26867 17.3849 3.20128C17.3849 3.20128 11.8597 8.42714 11.5031 8.71056C11.5031 8.71056 10.2738 9.90796 10.2961 9.96528C10.3694 10.1372 17.0219 17.1528 17.0219 17.1528L16.8786 17.2866L16.8181 17.3407C12.7132 20.9552 6.38867 20.7705 2.67229 16.7548C0.883971 14.8068 -0.0614111 12.2307 0.0423962 9.58835C0.146203 6.94603 1.29078 4.452 3.22641 2.65035Z" fill="url(#paint2_radial_9_6417)"/>
<path d="M3.22954 2.64708C5.18936 0.862706 7.77232 -0.0793376 10.4207 0.0243351C13.0692 0.128008 15.5706 1.26908 17.3849 3.20119C17.3849 3.20119 12.0189 8.29648 11.5444 8.68182C11.5444 8.68182 10.3534 9.86329 10.3852 9.93972C10.4808 10.169 17.0091 17.1241 17.0091 17.1241L16.869 17.2547C16.869 17.2547 16.8085 17.3088 16.8085 17.312C12.7132 20.9137 6.38862 20.7163 2.6818 16.7165C0.896351 14.7744 -0.0481828 12.2049 0.0544427 9.56882C0.157068 6.93277 1.29852 4.44441 3.22954 2.64708Z" fill="url(#paint3_radial_9_6417)"/>
<path d="M3.23565 2.64077C5.19596 0.85915 7.778 -0.0805741 10.4249 0.0242766C13.0718 0.129127 15.5714 1.27015 17.3846 3.20125C17.3846 3.20125 12.1811 8.1819 11.5856 8.65321C11.5856 8.65321 10.4327 9.81557 10.471 9.91111C10.592 10.1977 16.9993 17.0923 16.9961 17.0955L16.856 17.226L16.7955 17.2834C12.7097 20.8692 6.38836 20.6685 2.69109 16.6783C0.908727 14.7413 -0.0344841 12.1775 0.0675534 9.54719C0.169591 6.91689 1.30858 4.4339 3.23565 2.64077Z" fill="url(#paint4_radial_9_6417)"/>
<path d="M3.23904 2.6375C5.1996 0.857252 7.78118 -0.0813135 10.4273 0.0241262C13.0734 0.129566 15.5721 1.27057 17.3848 3.20117C17.3848 3.20117 12.3405 8.0608 11.6272 8.61491C11.6272 8.61491 10.5126 9.75817 10.5603 9.87281C10.7036 10.2167 16.9868 17.0508 16.9868 17.0508L16.8466 17.2132L16.7861 17.2674C12.7067 20.8277 6.38857 20.6207 2.69766 16.64C0.918578 14.7085 -0.0232285 12.151 0.078224 9.52701C0.179677 6.90297 1.31613 4.42588 3.23904 2.6375Z" fill="url(#paint5_radial_9_6417)"/>
<path d="M3.24521 2.63447C5.20601 0.855599 7.78714 -0.081808 10.4325 0.0242205C13.0778 0.130249 15.5757 1.27123 17.3878 3.20132C17.3878 3.20132 12.5027 7.93994 11.6715 8.61507C11.6715 8.61507 10.592 9.73921 10.6461 9.87297C10.8276 10.2583 16.977 17.035 16.9738 17.035L16.8337 17.1656L16.7732 17.2229C12.7065 20.7864 6.38836 20.5699 2.70702 16.6019C0.930412 14.6763 -0.01052 12.125 0.0903573 9.50701C0.191235 6.88898 1.3257 4.41766 3.24521 2.63447Z" fill="url(#paint6_radial_9_6417)"/>
<path d="M3.24823 2.62803C5.20968 0.850933 7.79059 -0.0847592 10.4352 0.0224541C13.0798 0.129667 15.5765 1.27121 17.3876 3.20125C17.3876 3.20125 12.6618 7.81567 11.7128 8.57041C11.7128 8.57041 10.6714 9.67864 10.7351 9.84423C10.9262 10.3028 16.9641 17.019 16.9609 17.019C16.9577 17.019 16.8303 17.1432 16.8208 17.1496L16.7603 17.2037C12.7032 20.745 6.38501 20.522 2.71322 16.5764C0.934975 14.6555 -0.00761608 12.1071 0.0927109 9.49143C0.193038 6.87576 1.32807 4.40702 3.24823 2.62803Z" fill="url(#paint7_radial_9_6417)"/>
<path d="M3.25494 2.62492C5.21647 0.850159 7.79624 -0.0837761 10.4393 0.0240187C13.0824 0.131814 15.5775 1.27272 17.388 3.20132C17.388 3.20132 12.8245 7.69473 11.7545 8.54182C11.7545 8.54182 10.7514 9.63094 10.8246 9.81564C11.038 10.3315 16.9517 16.9873 16.9517 16.9904L16.8116 17.121L16.7511 17.1752C12.7035 20.7164 6.38536 20.4839 2.73904 16.5382C0.962854 14.6246 0.0194001 12.0839 0.116144 9.47476C0.212889 6.86564 1.34191 4.40176 3.25494 2.62492Z" fill="url(#paint8_radial_9_6417)"/>
<path d="M3.25775 2.62165C5.21952 0.848267 7.79884 -0.0845121 10.4411 0.0238713C13.0834 0.132255 15.5777 1.27314 17.3876 3.20124C17.3876 3.20124 12.9834 7.57045 11.7828 8.51308C11.7828 8.51308 10.8274 9.58628 10.8975 9.7869C11.1459 10.3506 16.9418 16.9458 16.9386 16.949L16.7985 17.0764C16.7985 17.0764 16.7443 17.1273 16.738 17.1337C12.7 20.6622 6.38498 20.4201 2.72593 16.4968C1.84975 15.5508 1.16847 14.4415 0.721012 13.2323C0.273548 12.023 0.0686596 10.7375 0.118044 9.44906C0.167429 8.16062 0.47012 6.89453 1.00883 5.72308C1.54755 4.55162 2.31173 3.49776 3.25775 2.62165Z" fill="url(#paint9_radial_9_6417)"/>
<path d="M3.26436 2.61513C5.22662 0.844485 7.80502 -0.0859823 10.4458 0.0235781C13.0865 0.133139 15.579 1.27399 17.3879 3.20109C17.3879 3.20109 13.146 7.44929 11.8372 8.48427C11.8372 8.48427 10.9105 9.54154 10.9996 9.75809C11.2608 10.395 16.9293 16.9265 16.9293 16.9297L16.7892 17.0571L16.7287 17.1112C12.697 20.6206 6.38522 20.3722 2.73891 16.452C0.974025 14.5473 0.0379182 12.0196 0.136455 9.42478C0.234993 6.82996 1.36011 4.38052 3.26436 2.61513Z" fill="url(#paint10_radial_9_6417)"/>
<path d="M3.26776 2.61216C5.23079 0.842684 7.80926 -0.0867146 10.4498 0.0234313C13.0903 0.133577 15.5824 1.27449 17.3913 3.2013C17.3913 3.2013 13.3055 7.34122 11.8788 8.459C11.8788 8.459 10.9935 9.49398 11.0858 9.73283C11.3725 10.4111 16.92 16.8949 16.9168 16.8949L16.7766 17.0255L16.7161 17.0796C12.6972 20.5826 6.38544 20.3278 2.74868 16.4204C1.87526 15.4801 1.19578 14.3768 0.749113 13.1737C0.302446 11.9705 0.097353 10.6911 0.145564 9.40866C0.193775 8.12619 0.494344 6.86581 1.03008 5.6996C1.56582 4.53339 2.32621 3.48424 3.26776 2.61216Z" fill="url(#paint11_radial_9_6417)"/>
<path d="M3.27376 2.60881C5.23686 0.841675 7.81419 -0.0859718 10.4532 0.024755C13.0922 0.135482 15.5827 1.27577 17.3909 3.20114C17.3909 3.20114 13.4675 7.20412 11.9198 8.43018C11.9198 8.43018 11.0727 9.44924 11.1746 9.704C11.4931 10.4492 16.9069 16.8661 16.9069 16.8693L16.7667 16.9998C16.7667 16.9998 16.7126 17.0476 16.7094 17.054C12.6969 20.557 6.38826 20.2799 2.75786 16.3852C-0.872531 12.4905 -0.691011 6.20417 3.27376 2.60881Z" fill="url(#paint12_radial_9_6417)"/>
<path d="M3.27723 2.60239C5.24098 0.837023 7.81809 -0.0889127 10.4563 0.0229978C13.0945 0.134908 15.584 1.27576 17.3912 3.20108C17.3912 3.20108 13.627 7.07668 11.9774 8.39509C11.9774 8.39509 11.1654 9.39504 11.2768 9.66891C11.6112 10.4714 16.9071 16.8278 16.9071 16.831L16.767 16.9584L16.7065 17.0125C12.6908 20.4932 6.36944 20.2225 2.76452 16.3374C-0.840394 12.4522 -0.677982 6.18819 3.27723 2.60239Z" fill="url(#paint13_radial_9_6417)"/>
<path d="M3.2837 2.59929C5.24751 0.836262 7.82348 -0.0879235 10.4602 0.0245676C13.0969 0.137059 15.5848 1.27729 17.3913 3.20117C17.3913 3.20117 13.7895 6.95895 12.0062 8.37289C12.0062 8.37289 11.2324 9.35692 11.3502 9.64671C11.71 10.5034 16.8786 16.7992 16.8786 16.8024L16.7384 16.9298L16.6779 16.9839C12.6909 20.4519 6.36953 20.1717 2.77099 16.2992C-0.827564 12.4268 -0.665151 6.17236 3.2837 2.59929Z" fill="url(#paint14_radial_9_6417)"/>
<path d="M3.2865 2.59604C5.25055 0.834379 7.82606 -0.0886542 10.462 0.024425C13.0979 0.137504 15.5849 1.27771 17.3909 3.2011C17.3909 3.2011 13.9484 6.83786 12.0472 8.34416C12.0472 8.34416 11.3116 9.29953 11.439 9.61798C11.8211 10.5256 16.8782 16.7705 16.8782 16.7737L16.7412 16.9011L16.6807 16.9552C12.6873 20.3977 6.36915 20.1238 2.78015 16.2578C-0.808841 12.3917 -0.655982 6.15955 3.2865 2.59604Z" fill="url(#paint15_radial_9_6417)"/>
<path d="M3.29311 2.58979C5.25852 0.831433 7.83347 -0.0888775 10.4682 0.0253639C13.1028 0.139605 15.5885 1.27935 17.3943 3.20122C17.3943 3.20122 14.111 6.70424 12.1016 8.31562C12.1016 8.31562 11.4042 9.27099 11.5379 9.58944C11.9328 10.5639 16.8784 16.7388 16.8593 16.742L16.7192 16.8693C16.7006 16.889 16.6803 16.9071 16.6587 16.9235C12.6875 20.3692 6.36939 20.0794 2.78995 16.2229C-0.789488 12.3664 -0.63663 6.14375 3.29311 2.58979Z" fill="url(#paint16_radial_9_6417)"/>
<path d="M3.29642 2.58672C5.26417 0.831004 7.84068 -0.0852816 10.4752 0.0337367C13.1096 0.152755 15.593 1.29763 17.3944 3.22363C17.3944 3.22363 14.2704 6.59289 12.1304 8.29663C12.1304 8.29663 11.4712 9.22652 11.6145 9.57045C12.0444 10.6054 16.8499 16.723 16.8467 16.7261C16.8435 16.7293 16.7289 16.8376 16.7066 16.8535L16.6493 16.9077C12.6845 20.3279 6.36951 20.0222 2.79644 16.1848C-0.776629 12.3474 -0.636508 6.12794 3.29642 2.58672Z" fill="url(#paint17_radial_9_6417)"/>
<path d="M3.30271 2.58342C5.26977 0.828866 7.84506 -0.0867356 10.4782 0.0322779C13.1114 0.151292 15.5936 1.29548 17.3944 3.22033C17.3944 3.22033 14.4327 6.47813 12.1717 8.27103C12.1717 8.27103 11.5507 9.18182 11.7004 9.54485C12.1558 10.6372 16.8403 16.6942 16.8339 16.6974L16.697 16.8247L16.6364 16.8789C12.6812 20.2864 6.36944 19.9743 2.80592 16.1464C-0.757601 12.3186 -0.620665 6.1119 3.30271 2.58342Z" fill="url(#paint18_radial_9_6417)"/>
<path d="M3.30585 2.56425C5.27309 0.811435 7.84752 -0.103066 10.4797 0.0159283C13.1118 0.134923 15.5933 1.27799 17.3943 3.20117C17.3943 3.20117 14.5919 6.33796 12.2162 8.22321C12.2162 8.22321 11.6303 9.11489 11.7895 9.49704C12.2672 10.6467 16.8275 16.6464 16.8243 16.6496L16.6842 16.7769L16.6237 16.8279C12.6812 20.2449 6.36939 19.9233 2.81224 16.1114C-0.744908 12.2994 -0.607972 6.09593 3.30585 2.56425Z" fill="url(#paint19_radial_9_6417)"/>
<path d="M3.31198 2.56437C5.27853 0.812716 7.85174 -0.101102 10.4826 0.0178875C13.1135 0.136878 15.5937 1.27925 17.3941 3.20128C15.8109 4.99646 14.0937 6.6689 12.2574 8.20422C12.2574 8.20422 11.7097 9.07998 11.8784 9.47805C12.3784 10.685 16.8145 16.621 16.8113 16.6274L16.6744 16.7516L16.6139 16.8057C12.6778 20.2036 6.36915 19.8756 2.82156 16.0733C-0.726034 12.2709 -0.598652 6.06739 3.31198 2.56437Z" fill="url(#paint20_radial_9_6417)"/>
<path d="M3.31512 2.56433C5.28203 0.813444 7.85507 -0.0998674 10.4857 0.0191115C13.1163 0.13809 15.5964 1.27995 17.3972 3.20125C15.8362 4.99152 14.1321 6.65189 12.3019 8.16597C12.3019 8.16597 11.7956 9.02261 11.9835 9.43979C12.5089 10.7136 16.824 16.5827 16.8176 16.5859L16.6807 16.7133L16.6202 16.7675C12.6777 20.159 6.36911 19.8246 2.82789 16.035C-0.713341 12.2454 -0.585959 6.06735 3.31512 2.56433Z" fill="url(#paint21_radial_9_6417)"/>
<path d="M3.32175 2.56439C5.28867 0.816187 7.86016 -0.0954337 10.489 0.0235186C13.1178 0.142471 15.5965 1.2826 17.3975 3.2013C15.861 4.99285 14.1687 6.64467 12.3404 8.13736C12.3404 8.13736 11.8723 8.97809 12.0538 9.41119C12.6016 10.7455 16.7924 16.5764 16.7892 16.5764C16.7861 16.5764 16.6778 16.6815 16.6491 16.7038L16.5918 16.7548C12.6748 20.1177 6.36937 19.761 2.8377 15.9969C-0.693976 12.2327 -0.576147 6.0674 3.32175 2.56439Z" fill="url(#paint22_radial_9_6417)"/>
<path d="M3.32489 2.56431C5.29164 0.817071 7.86243 -0.0939562 10.4905 0.0249881C13.1186 0.143932 15.5966 1.28346 17.3974 3.20122C15.8858 4.99602 14.2063 6.64247 12.3818 8.11817C12.3818 8.11817 11.9519 8.93979 12.1397 9.392C12.7161 10.7709 16.7828 16.5318 16.7765 16.535L16.6395 16.6592L16.579 16.7133C12.6716 20.0794 6.36933 19.7259 2.84721 15.9586C-0.674911 12.1912 -0.563451 6.03547 3.32489 2.56431Z" fill="url(#paint23_radial_9_6417)"/>
<path d="M3.32806 2.56423C5.29464 0.817956 7.86474 -0.0924789 10.4921 0.0264576C13.1194 0.145394 15.5967 1.28432 17.3974 3.20114C15.9116 4.9991 14.2435 6.63833 12.42 8.09262C12.42 8.09262 12.0283 8.89513 12.2257 9.36644C12.8244 10.8027 16.7669 16.4998 16.7637 16.5062L16.6236 16.6304L16.5631 16.6846C12.6716 20.0347 6.36932 19.6749 2.8663 15.9203C-0.636709 12.1657 -0.550726 6.01947 3.32806 2.56423Z" fill="url(#paint24_radial_9_6417)"/>
<path d="M3.33419 2.56432C5.30042 0.81997 7.86914 -0.08928 10.4949 0.0296408C13.1207 0.148561 15.5967 1.28629 17.3972 3.20123C15.9392 4.9998 14.2858 6.63075 12.4675 8.06405C12.4675 8.06405 12.1108 8.85063 12.3178 9.33787C12.9547 10.8314 16.7762 16.4713 16.7539 16.4776L16.617 16.6018L16.5565 16.6528C12.6681 19.9934 6.36907 19.624 2.86606 15.8821C-0.636956 12.1403 -0.541421 6.00364 3.33419 2.56432Z" fill="url(#paint25_radial_9_6417)"/>
<path d="M3.33732 2.56422C5.30372 0.82159 7.87159 -0.0865678 10.4963 0.0323342C13.1211 0.151236 15.5963 1.28785 17.3971 3.20113C15.9685 5.0036 14.3271 6.62676 12.5088 8.03529C12.5088 8.03529 12.1904 8.80277 12.4038 9.30911C13.0407 10.86 16.7475 16.4393 16.7411 16.4425C16.7348 16.4457 16.636 16.5412 16.6042 16.5667L16.5437 16.6209C12.6681 19.9519 6.36902 19.5761 2.866 15.8438C-0.637012 12.1115 -0.528737 5.98762 3.33732 2.56422Z" fill="url(#paint26_radial_9_6417)"/>
<path d="M3.34394 2.54521C5.31258 0.805955 7.88117 -0.0982832 10.5052 0.02418C13.1293 0.146643 15.6025 1.28618 17.4006 3.20123C17.4006 3.20123 15.8783 5.36673 12.5505 8.00673C12.5505 8.00673 12.2702 8.75828 12.4932 9.28055C13.1619 10.8728 16.735 16.4108 16.7318 16.414L16.5917 16.5382L16.5344 16.5923C12.6651 19.9106 6.36926 19.5253 2.86625 15.8057C-0.636755 12.0861 -0.518926 5.9718 3.34394 2.54521Z" fill="url(#paint27_radial_9_6417)"/>
<path d="M3.34711 2.53881C5.31674 0.802077 7.88494 -0.0999632 10.508 0.0236703C13.131 0.147304 15.603 1.2869 17.4006 3.2012C17.4006 3.2012 16.0408 5.23295 12.5919 7.97804C12.4634 8.39292 12.4634 8.83697 12.5919 9.25186C13.2861 10.9174 16.7318 16.3757 16.7318 16.3821L16.5949 16.5063L16.5344 16.5572C12.6619 19.8692 6.36926 19.4775 2.88854 15.7706C-0.592185 12.0638 -0.506202 5.95903 3.34711 2.53881Z" fill="url(#paint28_radial_9_6417)"/>
<path d="M3.35357 2.53557C5.32255 0.799631 7.88995 -0.101674 10.512 0.0225607C13.134 0.146795 15.6046 1.28681 17.4007 3.20114C17.4007 3.20114 16.2001 5.11188 12.6238 7.93658C12.5113 8.35555 12.5235 8.79825 12.6589 9.2104C13.3754 10.9555 16.7128 16.3565 16.7064 16.3629L16.5695 16.4871L16.5122 16.5381C12.662 19.8277 6.36935 19.4424 2.895 15.7324C-0.579355 12.0224 -0.493372 5.94304 3.35357 2.53557Z" fill="url(#paint29_radial_9_6417)"/>
<path d="M3.35694 2.53234C5.32615 0.797769 7.89309 -0.102391 10.5143 0.0224302C13.1356 0.147251 15.6054 1.28726 17.4008 3.2011C17.4008 3.2011 16.3627 5.00037 12.675 7.9238C12.5862 8.34782 12.6138 8.78794 12.7546 9.19762C13.4966 10.9778 16.7034 16.3183 16.697 16.3246L16.5601 16.4457L16.4996 16.4998C12.659 19.7863 6.36953 19.3755 2.90474 15.6941C-0.614196 11.9618 -0.483629 5.92708 3.35694 2.53234Z" fill="url(#paint30_radial_9_6417)"/>
<path d="M3.3629 2.52613C5.33291 0.795033 7.89877 -0.102343 10.5183 0.0236395C13.1378 0.149622 15.6057 1.28909 17.4004 3.20126C17.4004 3.20126 16.5215 4.86678 12.7159 7.88255C12.6503 8.31111 12.6941 8.74931 12.8433 9.15638C13.6076 10.9939 16.6903 16.277 16.6839 16.2802L16.547 16.4044L16.4865 16.4554C12.665 19.7195 6.3755 19.3215 2.9107 15.6338C-0.554101 11.946 -0.471303 5.91131 3.3629 2.52613Z" fill="url(#paint31_radial_9_6417)"/>
<path d="M3.36655 2.52272C5.3373 0.79278 7.90323 -0.103545 10.5225 0.023021C13.1417 0.149587 15.6093 1.28914 17.4041 3.20103C17.4041 3.20103 16.6844 4.74235 12.761 7.85366C12.718 8.28588 12.7769 8.72214 12.933 9.12749C13.7195 11.0478 16.678 16.2577 16.6716 16.2736L16.5347 16.3978L16.4774 16.4488C12.6559 19.7002 6.36959 19.2767 2.92071 15.6208C-0.582296 11.9076 -0.458099 5.89516 3.36655 2.52272Z" fill="url(#paint32_radial_9_6417)"/>
<path d="M3.37292 2.5197C5.34337 0.791319 7.90832 -0.103772 10.5263 0.0233828C13.1443 0.150538 15.6104 1.28999 17.4041 3.20119C17.4041 3.20119 16.8436 4.63424 12.8024 7.83791C12.7844 8.27301 12.8581 8.70703 13.0189 9.11173C13.831 11.0766 16.6684 16.2388 16.6621 16.2579L16.5251 16.3789L16.4646 16.4298C12.6527 19.659 6.36959 19.2291 2.92708 15.5796C-0.566375 11.8791 -0.448546 5.87941 3.37292 2.5197Z" fill="url(#paint33_radial_9_6417)"/>
<path d="M3.37584 2.51332C5.34726 0.787459 7.91183 -0.105441 10.5288 0.0228829C13.1458 0.151207 15.6107 1.29073 17.4038 3.20118C17.4038 3.20118 17.0057 4.51004 12.8435 7.80923C12.8504 8.25188 12.94 8.68932 13.1078 9.09898C13.9454 11.1084 16.6554 16.2101 16.6491 16.2165L16.5121 16.3375L16.4548 16.3884C12.6525 19.6176 6.36933 19.1781 2.93638 15.5413C-0.550714 11.8536 -0.43607 5.86347 3.37584 2.51332Z" fill="url(#paint34_radial_9_6417)"/>
<path d="M3.38226 2.51022C5.35478 0.791145 7.91706 -0.0960562 10.5303 0.0351979C13.1435 0.166452 15.604 1.30593 17.3943 3.21401C17.3943 3.21401 17.1555 4.38911 12.8754 7.78066C12.9124 8.22476 13.0199 8.66014 13.1939 9.07041C14.0569 11.1404 16.6459 16.1815 16.6396 16.1879L16.5026 16.3089C16.481 16.3241 16.4608 16.3412 16.4421 16.3599C12.6493 19.5763 6.36937 19.124 2.94597 15.5032C-0.534746 11.825 -0.426471 5.85082 3.38226 2.51022Z" fill="url(#paint35_radial_9_6417)"/>
<path d="M3.38514 2.5071C5.35772 0.787663 7.92041 -0.0994811 10.5339 0.0323795C13.1473 0.16424 15.6077 1.30482 17.3972 3.21407C17.3972 3.21407 17.3208 4.26816 12.9197 7.75206C12.9822 8.19664 13.1021 8.63124 13.2764 9.04499C14.1681 11.1627 16.6329 16.1497 16.6265 16.1561L16.4896 16.2771C16.4705 16.2771 16.4482 16.3153 16.4291 16.3281C12.6458 19.5349 6.36907 19.0795 2.95204 15.4651C-0.519125 11.7996 -0.414036 5.83496 3.38514 2.5071Z" fill="url(#paint36_radial_9_6417)"/>
<path d="M3.39164 2.50055C5.3657 0.783424 7.92853 -0.101626 10.5415 0.031399C13.1545 0.164424 15.6142 1.30517 17.4037 3.21389C17.4037 3.21389 17.4865 4.15652 12.9676 7.7264C13.0601 8.16883 13.1967 8.6009 13.3752 9.01615C14.2828 11.2008 16.6267 16.1209 16.6171 16.1273C16.6075 16.1336 16.5247 16.2132 16.4802 16.2483L16.4228 16.2992C12.6491 19.4997 6.3692 19.0284 2.96173 15.4267C-0.506252 11.7708 -0.40116 5.81886 3.39164 2.50055Z" fill="url(#paint37_radial_9_6417)"/>
<path d="M3.3947 2.49746C5.36922 0.780377 7.93268 -0.104062 10.5459 0.0301643C13.1592 0.16439 15.6185 1.30682 17.4067 3.21717C17.4067 3.21717 17.6488 4.02286 13.012 7.69784C13.1311 8.13845 13.2801 8.57043 13.4579 8.99077C14.391 11.22 16.6106 16.0923 16.6042 16.0987L16.4673 16.2197L16.4068 16.2707C12.6458 19.4425 6.36907 18.9775 2.96797 15.3917C-0.490457 11.7422 -0.391736 5.80303 3.3947 2.49746Z" fill="url(#paint38_radial_9_6417)"/>
<path d="M3.40144 2.49432C5.37635 0.777639 7.94006 -0.106247 10.5533 0.0285731C13.1666 0.163393 15.6257 1.30641 17.4135 3.21721C17.4135 3.21721 17.8084 3.89871 13.057 7.65967C13.057 7.65967 13.2322 8.19467 13.5506 8.9526C14.506 11.2518 16.6014 16.0542 16.5951 16.0605L16.4581 16.1815L16.4008 16.2293C12.643 19.4107 6.36944 18.9298 2.97789 15.3536C-0.47417 11.7136 -0.378633 5.78715 3.40144 2.49432Z" fill="url(#paint39_radial_9_6417)"/>
<path d="M16.5793 16.0413C12.8597 19.3851 6.43008 18.9424 2.98439 15.3025C-0.461298 11.6625 -0.368946 5.74882 3.40475 2.47509C5.38081 0.759969 7.94482 -0.122319 10.5579 0.013678C13.1709 0.149675 15.6295 1.29337 17.4168 3.20436C17.4168 3.20436 17.9805 3.76484 13.1049 7.62771C13.0954 7.64044 16.592 16.0317 16.5793 16.0413Z" fill="url(#paint40_radial_9_6417)"/>
<path d="M12.9551 7.74805C11.4297 8.99958 9.55398 10.474 7.37256 12.1268C8.99308 13.8793 10.8778 15.3675 12.9583 16.5374C14.7448 17.4928 16.1428 17.6711 16.8275 17.0661C17.5122 16.461 17.4294 15.0662 16.6332 13.2446C15.6906 11.2378 14.4506 9.3848 12.9551 7.74805Z" fill="url(#paint41_linear_9_6417)"/>
<path d="M13.0918 7.62378L12.3275 8.26069C13.727 9.79904 14.8903 11.5366 15.7796 13.4165C16.5598 15.2126 16.5407 16.1138 16.2891 16.3399C16.0376 16.566 14.9516 16.6233 13.216 15.703C11.2934 14.6127 9.5546 13.2263 8.06342 11.5949L7.20996 12.2318L7.41059 12.4261C11.0251 16.1616 14.9357 18.2889 16.6554 17.515C16.7063 17.4895 16.7573 17.4641 16.805 17.4354H16.8241C16.8906 17.3941 16.9535 17.3473 17.012 17.2953C17.074 17.2392 17.1305 17.1774 17.1808 17.1106C18.305 15.6361 16.598 11.665 13.1969 7.77345L13.0918 7.62378Z" fill="#84EEB1"/>
</g>
<path d="M28.48 17.7163C26.6311 17.7163 25.1722 17.0447 24.1033 15.7013C23.0344 14.3435 22.5 12.4369 22.5 9.98131C22.5 7.58352 23.0272 5.69129 24.0817 4.30462C25.1506 2.91795 26.6817 2.22461 28.675 2.22461C29.3684 2.22461 29.9895 2.32572 30.5384 2.52794C31.0873 2.71572 31.535 2.93239 31.8817 3.17795V5.27962C31.4917 5.03407 31.0295 4.80295 30.495 4.58629C29.9606 4.36962 29.3973 4.26129 28.805 4.26129C27.5339 4.26129 26.6095 4.73073 26.0317 5.66962C25.4539 6.60852 25.165 8.04574 25.165 9.98131C25.165 11.8591 25.4539 13.2819 26.0317 14.2497C26.6095 15.203 27.4906 15.6797 28.675 15.6797C29.3684 15.6797 29.9678 15.5786 30.4734 15.3763C30.9789 15.1597 31.4484 14.8924 31.8817 14.5747V16.6763C31.5495 16.9074 31.1017 17.1386 30.5384 17.3697C29.975 17.6008 29.2889 17.7163 28.48 17.7163Z" fill="black"/>
<path d="M33.5128 6.60129H42.0062V17.4997H39.4278V8.63797H36.0912V17.4997H33.5128V6.60129Z" fill="black"/>
<path d="M43.3102 15.268C43.3102 15.268 43.3608 15.3041 43.4619 15.3763C43.563 15.4341 43.7075 15.463 43.8952 15.463C44.3141 15.463 44.5886 15.2463 44.7186 14.813C44.8486 14.3797 44.9352 13.5852 44.9786 12.4297L45.1952 6.60129H52.5836V17.4997H50.0053V8.63797H47.3836L47.2319 12.538C47.1741 14.3435 46.9503 15.658 46.5603 16.4813C46.1703 17.3047 45.4264 17.7163 44.3286 17.7163C44.0252 17.7163 43.7797 17.6802 43.5919 17.608C43.4041 17.5358 43.3102 17.4997 43.3102 17.4997V15.268Z" fill="black"/>
<path d="M54.7564 6.60129H57.2697V13.3397L61.2564 6.60129H63.4881V17.4997H60.9747V10.7613L56.9881 17.4997H54.7564V6.60129Z" fill="black"/>
<path d="M73.6483 8.63797H70.6149V17.4997H68.0366V8.63797H65.0032V6.60129H73.6483V8.63797Z" fill="black"/>
</g>
<defs>
<radialGradient id="paint0_radial_9_6417" cx="0" cy="0" r="1" gradientUnits="userSpaceOnUse" gradientTransform="translate(12.5692 1.13292) rotate(-2.29061) scale(45.8464 33.9271)">
<stop stop-color="#03BA50"/>
<stop offset="0.8" stop-color="#01B64E"/>
</radialGradient>
<radialGradient id="paint1_radial_9_6417" cx="0" cy="0" r="1" gradientUnits="userSpaceOnUse" gradientTransform="translate(12.5643 1.12936) rotate(-2.29061) scale(45.7508 33.8564)">
<stop stop-color="#04BC50"/>
<stop offset="0.8" stop-color="#01B34D"/>
</radialGradient>
<radialGradient id="paint2_radial_9_6417" cx="0" cy="0" r="1" gradientUnits="userSpaceOnUse" gradientTransform="translate(12.5539 1.138) rotate(-2.29061) scale(45.6552 33.7856)">
<stop stop-color="#06BD51"/>
<stop offset="0.72" stop-color="#02B24C"/>
<stop offset="0.8" stop-color="#01B04B"/>
</radialGradient>
<radialGradient id="paint3_radial_9_6417" cx="0" cy="0" r="1" gradientUnits="userSpaceOnUse" gradientTransform="translate(12.5366 1.15231) rotate(-2.29061) scale(45.5597 33.7149)">
<stop stop-color="#08BF52"/>
<stop offset="0.56" stop-color="#04B44D"/>
<stop offset="0.8" stop-color="#01AD4A"/>
</radialGradient>
<radialGradient id="paint4_radial_9_6417" cx="0" cy="0" r="1" gradientUnits="userSpaceOnUse" gradientTransform="translate(12.5193 1.16619) rotate(-2.29061) scale(45.464 33.6441)">
<stop stop-color="#0AC053"/>
<stop offset="0.48" stop-color="#05B54E"/>
<stop offset="0.8" stop-color="#01AA49"/>
</radialGradient>
<radialGradient id="paint5_radial_9_6417" cx="0" cy="0" r="1" gradientUnits="userSpaceOnUse" gradientTransform="translate(12.4994 1.20053) rotate(-1.71836) scale(45.3494 33.5691)">
<stop stop-color="#0BC253"/>
<stop offset="0.42" stop-color="#07B74E"/>
<stop offset="0.8" stop-color="#01A848"/>
</radialGradient>
<radialGradient id="paint6_radial_9_6417" cx="0" cy="0" r="1" gradientUnits="userSpaceOnUse" gradientTransform="translate(12.4728 1.20939) rotate(-1.71836) scale(45.2538 33.4984)">
<stop stop-color="#0DC354"/>
<stop offset="0.37" stop-color="#08B84F"/>
<stop offset="0.8" stop-color="#01A546"/>
</radialGradient>
<radialGradient id="paint7_radial_9_6417" cx="0" cy="0" r="1" gradientUnits="userSpaceOnUse" gradientTransform="translate(12.809 1.2182) rotate(-1.71836) scale(45.1582 33.4141)">
<stop stop-color="#0FC555"/>
<stop offset="0.33" stop-color="#0ABA50"/>
<stop offset="0.8" stop-color="#01A245"/>
</radialGradient>
<radialGradient id="paint8_radial_9_6417" cx="0" cy="0" r="1" gradientUnits="userSpaceOnUse" gradientTransform="translate(12.7757 1.23441) rotate(-1.70136) scale(45.5128 33.3434)">
<stop stop-color="#11C656"/>
<stop offset="0.3" stop-color="#0CBB51"/>
<stop offset="0.8" stop-color="#019F44"/>
</radialGradient>
<radialGradient id="paint9_radial_9_6417" cx="0" cy="0" r="1" gradientUnits="userSpaceOnUse" gradientTransform="translate(12.7642 1.25067) rotate(-1.70135) scale(45.4163 33.2727)">
<stop stop-color="#12C856"/>
<stop offset="0.28" stop-color="#0EBD51"/>
<stop offset="0.77" stop-color="#029E44"/>
<stop offset="0.8" stop-color="#019C43"/>
</radialGradient>
<radialGradient id="paint10_radial_9_6417" cx="0" cy="0" r="1" gradientUnits="userSpaceOnUse" gradientTransform="translate(12.7533 1.27259) rotate(-1.70135) scale(45.3166 33.1996)">
<stop stop-color="#14C957"/>
<stop offset="0.26" stop-color="#0FBE52"/>
<stop offset="0.72" stop-color="#049F44"/>
<stop offset="0.8" stop-color="#019941"/>
</radialGradient>
<radialGradient id="paint11_radial_9_6417" cx="0" cy="0" r="1" gradientUnits="userSpaceOnUse" gradientTransform="translate(12.7328 1.29986) rotate(-1.70136) scale(45.22 33.1289)">
<stop stop-color="#16CB58"/>
<stop offset="0.24" stop-color="#11C053"/>
<stop offset="0.66" stop-color="#06A145"/>
<stop offset="0.8" stop-color="#019640"/>
</radialGradient>
<radialGradient id="paint12_radial_9_6417" cx="0" cy="0" r="1" gradientUnits="userSpaceOnUse" gradientTransform="translate(12.7086 1.32922) rotate(-1.70135) scale(45.1235 33.0582)">
<stop stop-color="#18CC59"/>
<stop offset="0.23" stop-color="#13C154"/>
<stop offset="0.62" stop-color="#07A246"/>
<stop offset="0.8" stop-color="#01933F"/>
</radialGradient>
<radialGradient id="paint13_radial_9_6417" cx="0" cy="0" r="1" gradientUnits="userSpaceOnUse" gradientTransform="translate(12.685 1.36442) rotate(-1.70136) scale(45.0237 32.9851)">
<stop stop-color="#19CD59"/>
<stop offset="0.21" stop-color="#15C254"/>
<stop offset="0.59" stop-color="#09A347"/>
<stop offset="0.8" stop-color="#01903E"/>
</radialGradient>
<radialGradient id="paint14_radial_9_6417" cx="0" cy="0" r="1" gradientUnits="userSpaceOnUse" gradientTransform="translate(12.6549 1.40231) rotate(-1.70135) scale(44.9272 32.9143)">
<stop stop-color="#1BCF5A"/>
<stop offset="0.2" stop-color="#17C455"/>
<stop offset="0.56" stop-color="#0BA547"/>
<stop offset="0.8" stop-color="#018D3C"/>
</radialGradient>
<radialGradient id="paint15_radial_9_6417" cx="0" cy="0" r="1" gradientUnits="userSpaceOnUse" gradientTransform="translate(12.6211 1.26387) rotate(-1.13442) scale(44.8197 32.8429)">
<stop stop-color="#1DD05B"/>
<stop offset="0.19" stop-color="#18C556"/>
<stop offset="0.54" stop-color="#0CA648"/>
<stop offset="0.8" stop-color="#018B3B"/>
</radialGradient>
<radialGradient id="paint16_radial_9_6417" cx="0" cy="0" r="1" gradientUnits="userSpaceOnUse" gradientTransform="translate(12.5848 1.29272) rotate(-1.13442) scale(44.7199 32.7698)">
<stop stop-color="#1ED25B"/>
<stop offset="0.18" stop-color="#1AC756"/>
<stop offset="0.51" stop-color="#0EA848"/>
<stop offset="0.8" stop-color="#01883A"/>
</radialGradient>
<radialGradient id="paint17_radial_9_6417" cx="0" cy="0" r="1" gradientUnits="userSpaceOnUse" gradientTransform="translate(12.5485 1.32079) rotate(-1.13442) scale(44.6234 32.6991)">
<stop stop-color="#20D35C"/>
<stop offset="0.18" stop-color="#1BC857"/>
<stop offset="0.49" stop-color="#0FA949"/>
<stop offset="0.8" stop-color="#018539"/>
</radialGradient>
<radialGradient id="paint18_radial_9_6417" cx="0" cy="0" r="1" gradientUnits="userSpaceOnUse" gradientTransform="translate(12.5056 1.35991) rotate(-1.13442) scale(44.5269 32.6284)">
<stop stop-color="#22D55D"/>
<stop offset="0.17" stop-color="#1DCA58"/>
<stop offset="0.47" stop-color="#11AB4A"/>
<stop offset="0.8" stop-color="#018237"/>
</radialGradient>
<radialGradient id="paint19_radial_9_6417" cx="0" cy="0" r="1" gradientUnits="userSpaceOnUse" gradientTransform="translate(12.4562 1.39603) rotate(-1.13442) scale(44.4272 32.5553)">
<stop stop-color="#24D65E"/>
<stop offset="0.16" stop-color="#1FCB59"/>
<stop offset="0.45" stop-color="#13AC4B"/>
<stop offset="0.8" stop-color="#017F36"/>
</radialGradient>
<radialGradient id="paint20_radial_9_6417" cx="0" cy="0" r="1" gradientUnits="userSpaceOnUse" gradientTransform="translate(12.4036 1.44035) rotate(-1.13442) scale(44.3307 32.4846)">
<stop stop-color="#25D85E"/>
<stop offset="0.15" stop-color="#20CD59"/>
<stop offset="0.43" stop-color="#14AE4B"/>
<stop offset="0.79" stop-color="#017D36"/>
<stop offset="0.8" stop-color="#007C35"/>
</radialGradient>
<radialGradient id="paint21_radial_9_6417" cx="0" cy="0" r="1" gradientUnits="userSpaceOnUse" gradientTransform="translate(13.3675 1.49018) rotate(-1.13442) scale(44.2342 32.4052)">
<stop stop-color="#27D95F"/>
<stop offset="0.15" stop-color="#22CE5A"/>
<stop offset="0.42" stop-color="#16AF4C"/>
<stop offset="0.77" stop-color="#027E36"/>
<stop offset="0.8" stop-color="#007934"/>
</radialGradient>
<radialGradient id="paint22_radial_9_6417" cx="0" cy="0" r="1" gradientUnits="userSpaceOnUse" gradientTransform="translate(13.0383 1.5417) rotate(-1.1233) scale(44.5713 32.3322)">
<stop stop-color="#29DB60"/>
<stop offset="0.14" stop-color="#24D05B"/>
<stop offset="0.4" stop-color="#18B14D"/>
<stop offset="0.74" stop-color="#048037"/>
<stop offset="0.8" stop-color="#007632"/>
</radialGradient>
<radialGradient id="paint23_radial_9_6417" cx="0" cy="0" r="1" gradientUnits="userSpaceOnUse" gradientTransform="translate(12.9993 1.59881) rotate(-1.1233) scale(44.4738 32.2615)">
<stop stop-color="#2BDC61"/>
<stop offset="0.14" stop-color="#26D15C"/>
<stop offset="0.39" stop-color="#1AB24E"/>
<stop offset="0.71" stop-color="#068138"/>
<stop offset="0.8" stop-color="#007331"/>
</radialGradient>
<radialGradient id="paint24_radial_9_6417" cx="0" cy="0" r="1" gradientUnits="userSpaceOnUse" gradientTransform="translate(12.9604 1.66154) rotate(-1.1233) scale(44.3731 32.1884)">
<stop stop-color="#2CDE61"/>
<stop offset="0.13" stop-color="#27D35C"/>
<stop offset="0.37" stop-color="#1BB44E"/>
<stop offset="0.69" stop-color="#088339"/>
<stop offset="0.8" stop-color="#007030"/>
</radialGradient>
<radialGradient id="paint25_radial_9_6417" cx="0" cy="0" r="1" gradientUnits="userSpaceOnUse" gradientTransform="translate(12.918 1.34279) rotate(-0.561705) scale(44.2693 32.1181)">
<stop stop-color="#2EDF62"/>
<stop offset="0.13" stop-color="#29D45D"/>
<stop offset="0.37" stop-color="#1DB54F"/>
<stop offset="0.67" stop-color="#098439"/>
<stop offset="0.8" stop-color="#006E2F"/>
</radialGradient>
<radialGradient id="paint26_radial_9_6417" cx="0" cy="0" r="1" gradientUnits="userSpaceOnUse" gradientTransform="translate(12.8692 1.39252) rotate(-0.561705) scale(44.1718 32.0474)">
<stop stop-color="#30E163"/>
<stop offset="0.13" stop-color="#2BD65E"/>
<stop offset="0.35" stop-color="#1FB750"/>
<stop offset="0.65" stop-color="#0B8639"/>
<stop offset="0.8" stop-color="#006B2D"/>
</radialGradient>
<radialGradient id="paint27_radial_9_6417" cx="0" cy="0" r="1" gradientUnits="userSpaceOnUse" gradientTransform="translate(12.8208 1.44804) rotate(-0.561706) scale(44.0711 31.9743)">
<stop stop-color="#31E263"/>
<stop offset="0.12" stop-color="#2CD75E"/>
<stop offset="0.34" stop-color="#20B850"/>
<stop offset="0.63" stop-color="#0D873A"/>
<stop offset="0.8" stop-color="#00682C"/>
</radialGradient>
<radialGradient id="paint28_radial_9_6417" cx="0" cy="0" r="1" gradientUnits="userSpaceOnUse" gradientTransform="translate(12.7656 1.50584) rotate(-0.561705) scale(43.9736 31.9036)">
<stop stop-color="#33E364"/>
<stop offset="0.12" stop-color="#2ED85F"/>
<stop offset="0.34" stop-color="#22B951"/>
<stop offset="0.62" stop-color="#0E883B"/>
<stop offset="0.8" stop-color="#00652B"/>
</radialGradient>
<radialGradient id="paint29_radial_9_6417" cx="0" cy="0" r="1" gradientUnits="userSpaceOnUse" gradientTransform="translate(12.7072 1.56839) rotate(-0.561705) scale(43.873 31.8305)">
<stop stop-color="#35E565"/>
<stop offset="0.12" stop-color="#30DA60"/>
<stop offset="0.33" stop-color="#24BB52"/>
<stop offset="0.6" stop-color="#108A3C"/>
<stop offset="0.8" stop-color="#00622A"/>
</radialGradient>
<radialGradient id="paint30_radial_9_6417" cx="0" cy="0" r="1" gradientUnits="userSpaceOnUse" gradientTransform="translate(12.6489 1.63334) rotate(-0.561705) scale(43.7755 31.7598)">
<stop stop-color="#37E666"/>
<stop offset="0.11" stop-color="#32DB61"/>
<stop offset="0.32" stop-color="#26BC53"/>
<stop offset="0.59" stop-color="#128B3C"/>
<stop offset="0.8" stop-color="#005F28"/>
</radialGradient>
<radialGradient id="paint31_radial_9_6417" cx="0" cy="0" r="1" gradientUnits="userSpaceOnUse" gradientTransform="translate(12.5835 1.70413) rotate(-0.561705) scale(43.6748 31.6868)">
<stop stop-color="#38E866"/>
<stop offset="0.11" stop-color="#33DD61"/>
<stop offset="0.31" stop-color="#27BE53"/>
<stop offset="0.57" stop-color="#148D3D"/>
<stop offset="0.8" stop-color="#005C27"/>
</radialGradient>
<radialGradient id="paint32_radial_9_6417" cx="0" cy="0" r="1" gradientUnits="userSpaceOnUse" gradientTransform="translate(12.5158 1.77928) rotate(-0.561706) scale(43.5773 31.6161)">
<stop stop-color="#3AE967"/>
<stop offset="0.11" stop-color="#35DE62"/>
<stop offset="0.3" stop-color="#29BF54"/>
<stop offset="0.56" stop-color="#158E3E"/>
<stop offset="0.8" stop-color="#005926"/>
</radialGradient>
<radialGradient id="paint33_radial_9_6417" cx="0" cy="0" r="1" gradientUnits="userSpaceOnUse" gradientTransform="translate(12.4475 1.85725) rotate(-0.561705) scale(43.4799 31.5454)">
<stop stop-color="#3CEB68"/>
<stop offset="0.11" stop-color="#37E063"/>
<stop offset="0.29" stop-color="#2BC155"/>
<stop offset="0.54" stop-color="#17903F"/>
<stop offset="0.8" stop-color="#005625"/>
</radialGradient>
<radialGradient id="paint34_radial_9_6417" cx="0" cy="0" r="1" gradientUnits="userSpaceOnUse" gradientTransform="translate(12.3693 1.94067) rotate(-0.561705) scale(43.3792 31.4723)">
<stop stop-color="#3EEC69"/>
<stop offset="0.1" stop-color="#39E164"/>
<stop offset="0.29" stop-color="#2DC256"/>
<stop offset="0.53" stop-color="#19913F"/>
<stop offset="0.8" stop-color="#005323"/>
</radialGradient>
<radialGradient id="paint35_radial_9_6417" cx="0" cy="0" r="1" gradientUnits="userSpaceOnUse" gradientTransform="translate(12.2914 1.44524) scale(43.2796 31.3989)">
<stop stop-color="#3FEE69"/>
<stop offset="0.1" stop-color="#3AE364"/>
<stop offset="0.28" stop-color="#2EC456"/>
<stop offset="0.52" stop-color="#1A9340"/>
<stop offset="0.8" stop-color="#005122"/>
</radialGradient>
<radialGradient id="paint36_radial_9_6417" cx="0" cy="0" r="1" gradientUnits="userSpaceOnUse" gradientTransform="translate(13.3128 1.51498) scale(43.6023 31.3259)">
<stop stop-color="#41EF6A"/>
<stop offset="0.1" stop-color="#3CE465"/>
<stop offset="0.28" stop-color="#30C557"/>
<stop offset="0.51" stop-color="#1C9441"/>
<stop offset="0.79" stop-color="#015022"/>
<stop offset="0.8" stop-color="#004E21"/>
</radialGradient>
<radialGradient id="paint37_radial_9_6417" cx="0" cy="0" r="1" gradientUnits="userSpaceOnUse" gradientTransform="translate(13.25 1.59002) scale(43.5071 31.2576)">
<stop stop-color="#43F16B"/>
<stop offset="0.1" stop-color="#3EE666"/>
<stop offset="0.27" stop-color="#32C758"/>
<stop offset="0.5" stop-color="#1E9642"/>
<stop offset="0.77" stop-color="#035223"/>
<stop offset="0.8" stop-color="#004B20"/>
</radialGradient>
<radialGradient id="paint38_radial_9_6417" cx="0" cy="0" r="1" gradientUnits="userSpaceOnUse" gradientTransform="translate(13.1901 1.67005) scale(43.4087 31.1869)">
<stop stop-color="#45F26C"/>
<stop offset="0.1" stop-color="#40E767"/>
<stop offset="0.27" stop-color="#34C859"/>
<stop offset="0.49" stop-color="#209742"/>
<stop offset="0.76" stop-color="#055323"/>
<stop offset="0.8" stop-color="#00481E"/>
</radialGradient>
<radialGradient id="paint39_radial_9_6417" cx="0" cy="0" r="1" gradientUnits="userSpaceOnUse" gradientTransform="translate(13.1273 1.75556) scale(43.3071 31.1138)">
<stop stop-color="#46F46C"/>
<stop offset="0.09" stop-color="#41E967"/>
<stop offset="0.26" stop-color="#35CA59"/>
<stop offset="0.48" stop-color="#229943"/>
<stop offset="0.74" stop-color="#065524"/>
<stop offset="0.8" stop-color="#00451D"/>
</radialGradient>
<radialGradient id="paint40_radial_9_6417" cx="0" cy="0" r="1" gradientUnits="userSpaceOnUse" gradientTransform="translate(13.0675 1.84563) scale(43.2054 31.0408)">
<stop stop-color="#48F56D"/>
<stop offset="0.09" stop-color="#43EA68"/>
<stop offset="0.25" stop-color="#37CB5A"/>
<stop offset="0.47" stop-color="#239A44"/>
<stop offset="0.73" stop-color="#085625"/>
<stop offset="0.8" stop-color="#00421C"/>
</radialGradient>
<linearGradient id="paint41_linear_9_6417" x1="13.7703" y1="24.1644" x2="10.0444" y2="-2.554" gradientUnits="userSpaceOnUse">
<stop offset="0.1" stop-color="#FF8475"/>
<stop offset="0.37" stop-color="#E84E43"/>
<stop offset="0.6" stop-color="#D6261F"/>
<stop offset="0.79" stop-color="#CC0E08"/>
<stop offset="0.9" stop-color="#C80500"/>
</linearGradient>
<clipPath id="clip0_9_6417">
<rect width="74" height="20" fill="white"/>
</clipPath>
</defs>
</svg>
