<svg width="56" height="20" viewBox="0 0 56 20" fill="none" xmlns="http://www.w3.org/2000/svg">
<g clip-path="url(#clip0_9_6471)">
<path d="M24.4298 16.861C23.3918 16.861 22.5626 16.7098 21.9425 16.4071C21.3358 16.1045 20.8842 15.8293 20.5876 15.5817V13.5801C20.9246 13.8415 21.4099 14.1304 22.0436 14.4468C22.6907 14.7632 23.4187 14.9214 24.2276 14.9214C24.9825 14.9214 25.5892 14.7426 26.0476 14.3849C26.5059 14.0134 26.7351 13.4838 26.7351 12.796C26.7351 12.3695 26.6408 12.0256 26.4521 11.7643C26.2768 11.4891 26.0408 11.2621 25.7442 11.0832C25.4611 10.9045 25.1308 10.7531 24.7534 10.6293C24.3759 10.5055 23.9916 10.3748 23.6007 10.2372C23.2232 10.1134 22.8525 9.95523 22.4885 9.76266C22.1245 9.57009 21.8009 9.3293 21.5178 9.04041C21.2482 8.73776 21.0258 8.36634 20.8505 7.92612C20.6886 7.47214 20.6078 6.92188 20.6078 6.27532C20.6078 5.57373 20.7224 4.96155 20.9516 4.4388C21.1942 3.91605 21.5178 3.48271 21.9222 3.13879C22.3402 2.79488 22.8322 2.54038 23.3985 2.3753C23.9782 2.19646 24.5983 2.10704 25.2589 2.10704C26.1622 2.10704 26.87 2.22397 27.3822 2.45784C27.8945 2.67795 28.2653 2.87054 28.4945 3.03562V5.03721C28.0901 4.80335 27.6384 4.58325 27.1396 4.3769C26.6408 4.15679 26.0341 4.04674 25.3196 4.04674C24.5107 4.04674 23.9175 4.22557 23.5401 4.58325C23.1625 4.94092 22.9738 5.43616 22.9738 6.06896C22.9738 6.82558 23.2502 7.34834 23.8029 7.63723C24.3691 7.91236 25.0162 8.15998 25.7442 8.38009C26.7284 8.66898 27.5508 9.12296 28.2114 9.74199C28.8855 10.3473 29.2225 11.2965 29.2225 12.5896C29.2225 13.415 29.081 14.1029 28.7978 14.6531C28.5147 15.2034 28.144 15.6436 27.6856 15.9738C27.2407 16.2902 26.7284 16.5171 26.1487 16.6548C25.5825 16.7923 25.0095 16.861 24.4298 16.861Z" fill="white"/>
<path d="M33.1673 6.27532L33.2886 7.6166C33.6121 7.1076 34.0031 6.72242 34.4615 6.46104C34.9199 6.19967 35.4321 6.06897 35.9984 6.06897C37.1309 6.06897 38.0543 6.5367 38.7689 7.47215C39.4834 8.40761 39.8406 9.73514 39.8406 11.4548C39.8406 13.1881 39.4699 14.5225 38.7284 15.4579C38.0004 16.3933 37.05 16.861 35.8771 16.861C35.3647 16.861 34.8861 16.7442 34.4413 16.5103C34.0098 16.2627 33.6458 15.905 33.3493 15.4372V19.6469H30.9428V6.27532H33.1673ZM35.2704 14.9214C35.958 14.9214 36.477 14.6463 36.8276 14.096C37.178 13.532 37.3533 12.6515 37.3533 11.4548C37.3533 10.2579 37.1916 9.38433 36.868 8.83407C36.5444 8.2838 36.0523 8.00866 35.3917 8.00866C34.7177 8.00866 34.2054 8.29067 33.8548 8.8547C33.5178 9.40497 33.3493 10.2785 33.3493 11.4753C33.3493 12.6722 33.5111 13.5457 33.8346 14.096C34.1581 14.6463 34.6367 14.9214 35.2704 14.9214Z" fill="white"/>
<path d="M43.8554 2.3134V16.6548H41.449V2.3134H43.8554Z" fill="white"/>
<path d="M47.0657 4.99595C46.6747 4.99595 46.3445 4.86526 46.0748 4.60388C45.8052 4.34251 45.6703 3.99171 45.6703 3.5515C45.6703 3.12504 45.8052 2.78112 46.0748 2.51975C46.3445 2.24461 46.6747 2.10704 47.0657 2.10704C47.4566 2.10704 47.7869 2.24461 48.0566 2.51975C48.3397 2.78112 48.4813 3.12504 48.4813 3.5515C48.4813 3.99171 48.3397 4.34251 48.0566 4.60388C47.7869 4.86526 47.4566 4.99595 47.0657 4.99595ZM45.8726 6.27532H48.279V16.6548H45.8726V6.27532Z" fill="white"/>
<path d="M49.4873 6.27533H50.7613V4.00548H53.1678V6.27533H55.6955V8.21502H53.1678V13.5595C53.1678 13.9447 53.2891 14.268 53.5318 14.5293C53.7745 14.7907 54.1452 14.9214 54.6441 14.9214C55.0485 14.9214 55.3585 14.8664 55.5742 14.7563C55.7899 14.6463 55.8978 14.5912 55.8978 14.5912V16.5929C55.8978 16.5929 55.7361 16.6341 55.4125 16.7167C55.0889 16.813 54.6372 16.861 54.0575 16.861C52.9521 16.861 52.1229 16.5515 51.5702 15.9325C51.0309 15.2997 50.7613 14.5018 50.7613 13.5389V8.21502H49.4873V6.27533Z" fill="white"/>
<mask id="mask0_9_6471" style="mask-type:luminance" maskUnits="userSpaceOnUse" x="0" y="0" width="19" height="20">
<path d="M18.6667 0H0V19.0476H18.6667V0Z" fill="white"/>
</mask>
<g mask="url(#mask0_9_6471)">
<path d="M9.36283 9.56953L15.9196 16.4209L15.7858 16.5452L15.7294 16.5998C13.8934 18.271 11.4877 19.1394 9.03031 19.0183C6.57293 18.8971 4.2605 17.7959 2.59099 15.952C0.921484 14.108 0.0284693 11.6688 0.104263 9.15953C0.180056 6.65028 1.2186 4.27178 2.99622 2.53623C4.82389 0.829548 7.23692 -0.0736574 9.71255 0.0222812C12.1883 0.11822 14.5272 1.20558 16.2227 3.0488L9.36283 9.56953Z" fill="#01B94F"/>
<path d="M3.00216 2.53308C4.82955 0.827883 7.24168 -0.0741353 9.71609 0.0223675C12.1906 0.11887 14.5282 1.20613 16.2227 3.04867C16.2227 3.04867 10.7686 8.25921 10.6587 8.3502C10.6587 8.3502 9.43712 9.52391 9.44599 9.5421C9.45495 9.56029 15.9076 16.3935 15.9076 16.3935L15.7769 16.5209L15.7204 16.5754C11.8684 20.033 5.96549 19.8752 2.47904 16.0295C0.804734 14.164 -0.079683 11.6991 0.0182887 9.17144C0.116261 6.64376 1.18869 4.25787 3.00216 2.53308Z" fill="url(#paint0_radial_9_6471)"/>
<path d="M3.00488 2.52712C4.83373 0.824184 7.24598 -0.0757842 9.72001 0.0218359C12.194 0.119456 14.531 1.20682 16.2254 3.04879C16.2254 3.04879 10.917 8.14408 10.7 8.32302C10.7 8.32302 9.51113 9.48159 9.53194 9.51799C9.57656 9.62714 15.8985 16.3632 15.8985 16.3632L15.7677 16.4907L15.7113 16.5452C11.8682 19.9967 5.96227 19.8269 2.48771 15.9932C0.815908 14.1329 -0.0677927 11.6737 0.0290736 9.15153C0.12594 6.62932 1.19552 4.24833 3.00488 2.52712Z" fill="url(#paint1_radial_9_6471)"/>
<path d="M3.01132 2.52415C4.84025 0.823444 7.25142 -0.0748447 9.72403 0.02333C12.1966 0.121505 14.5321 1.20827 16.2259 3.04885C16.2259 3.04885 11.0691 8.02586 10.7362 8.29578C10.7362 8.29578 9.58888 9.43616 9.60969 9.49075C9.67811 9.65449 15.8871 16.336 15.8871 16.336L15.7534 16.4634L15.6969 16.515C11.8657 19.9573 5.96276 19.7814 2.49414 15.957C0.825039 14.1017 -0.0573175 11.6483 0.0395693 9.13177C0.136456 6.61528 1.20473 4.24001 3.01132 2.52415Z" fill="url(#paint2_radial_9_6471)"/>
<path d="M3.01424 2.52103C4.8434 0.821622 7.25417 -0.0755625 9.72599 0.0231734C12.1979 0.12191 14.5326 1.20864 16.2259 3.04875C16.2259 3.04875 11.2176 7.90141 10.7748 8.2684C10.7748 8.2684 9.66317 9.39361 9.69285 9.4664C9.78208 9.68476 15.8752 16.3087 15.8752 16.3087L15.7444 16.433C15.7444 16.433 15.6879 16.4846 15.6879 16.4876C11.8657 19.9178 5.96272 19.7298 2.50301 15.9205C0.836595 14.0709 -0.0449699 11.6237 0.050814 9.11316C0.146598 6.60264 1.21195 4.23277 3.01424 2.52103Z" fill="url(#paint3_radial_9_6471)"/>
<path d="M3.01994 2.515C4.84956 0.818224 7.25946 -0.0767517 9.7299 0.0231061C12.2003 0.122964 14.5333 1.20965 16.2256 3.0488C16.2256 3.0488 11.369 7.79227 10.8132 8.24114C10.8132 8.24114 9.73718 9.34815 9.77293 9.43914C9.88586 9.71208 15.866 16.2784 15.863 16.2814L15.7323 16.4057L15.6758 16.4604C11.8624 19.8754 5.96247 19.6843 2.51168 15.8841C0.848144 14.0393 -0.0321866 11.5976 0.0630483 9.09255C0.158283 6.5875 1.22134 4.22275 3.01994 2.515Z" fill="url(#paint4_radial_9_6471)"/>
<path d="M3.0231 2.51191C4.85296 0.816435 7.26244 -0.077437 9.73214 0.0229817C12.2018 0.123401 14.534 1.21007 16.2258 3.04874C16.2258 3.04874 11.5178 7.67696 10.8521 8.20468C10.8521 8.20468 9.81176 9.2935 9.85628 9.40268C9.99002 9.73019 15.8543 16.2389 15.8543 16.2389L15.7235 16.3935L15.667 16.4451C11.8596 19.8359 5.96266 19.6388 2.51782 15.8476C0.857337 14.0081 -0.0216825 11.5724 0.0730065 9.07335C0.167696 6.57426 1.22839 4.21513 3.0231 2.51191Z" fill="url(#paint5_radial_9_6471)"/>
<path d="M3.02886 2.50902C4.85894 0.81486 7.268 -0.077908 9.737 0.0230715C12.2059 0.124051 14.5373 1.2107 16.2286 3.04888C16.2286 3.04888 11.6692 7.56185 10.8934 8.20483C10.8934 8.20483 9.88587 9.27544 9.93636 9.40283C10.1058 9.76981 15.8452 16.2238 15.8422 16.2238L15.7115 16.3482L15.655 16.4028C11.8594 19.7966 5.96247 19.5904 2.52655 15.8113C0.868383 13.9774 -0.00981998 11.5476 0.0843322 9.0543C0.178485 6.56094 1.23732 4.2073 3.02886 2.50902Z" fill="url(#paint6_radial_9_6471)"/>
<path d="M3.03168 2.50289C4.86237 0.810415 7.27121 -0.0807202 9.73952 0.0213877C12.2078 0.123495 14.5381 1.21068 16.2284 3.04881C16.2284 3.04881 11.8177 7.4435 10.9319 8.1623C10.9319 8.1623 9.95997 9.21775 10.0194 9.37546C10.1978 9.81219 15.8332 16.2086 15.8302 16.2086C15.8272 16.2086 15.7084 16.3269 15.6994 16.333L15.6429 16.3845C11.8563 19.7571 5.95934 19.5448 2.53234 15.7871C0.872641 13.9576 -0.00711089 11.5306 0.0865276 9.03946C0.180166 6.54835 1.23953 4.19716 3.03168 2.50289Z" fill="url(#paint7_radial_9_6471)"/>
<path d="M3.03794 2.49994C4.8687 0.809687 7.27649 -0.0797751 9.74334 0.0228866C12.2102 0.125549 14.539 1.21213 16.2288 3.04889C16.2288 3.04889 11.9695 7.32833 10.9709 8.13508C10.9709 8.13508 10.0346 9.17234 10.103 9.34824C10.3021 9.83954 15.8216 16.1784 15.8216 16.1813L15.6908 16.3057L15.6344 16.3573C11.8566 19.7299 5.95967 19.5085 2.55644 15.7507C0.898662 13.9282 0.0181047 11.5085 0.108399 9.02359C0.198695 6.53872 1.25245 4.19216 3.03794 2.49994Z" fill="url(#paint8_radial_9_6471)"/>
<path d="M3.04057 2.49681C4.87155 0.807873 7.27892 -0.0804877 9.74503 0.0227345C12.2112 0.125957 14.5392 1.21251 16.2284 3.0488C16.2284 3.0488 12.1178 7.20995 10.9973 8.10769C10.9973 8.10769 10.1056 9.12979 10.171 9.32086C10.4028 9.85771 15.8123 16.1389 15.8094 16.1419L15.6786 16.2632C15.6786 16.2632 15.628 16.3117 15.6221 16.3178C11.8533 19.6783 5.95931 19.4477 2.5442 15.7112C1.72643 14.8103 1.09057 13.7538 0.672945 12.6022C0.255312 11.4505 0.0640826 10.2262 0.110175 8.9991C0.156267 7.77202 0.438779 6.56622 0.941575 5.45055C1.44438 4.33488 2.15762 3.3312 3.04057 2.49681Z" fill="url(#paint9_radial_9_6471)"/>
<path d="M3.04673 2.49061C4.87818 0.804279 7.28469 -0.0818806 9.74941 0.0224626C12.2142 0.126806 14.5404 1.21333 16.2287 3.04866C16.2287 3.04866 12.2696 7.09457 11.0481 8.08026C11.0481 8.08026 10.1831 9.08719 10.2663 9.29343C10.5101 9.90001 15.8007 16.1205 15.8007 16.1235L15.6699 16.2449L15.6135 16.2964C11.8505 19.6387 5.95955 19.4021 2.55631 15.6686C0.909088 13.8546 0.0353878 11.4472 0.127356 8.97599C0.219324 6.50473 1.26943 4.17193 3.04673 2.49061Z" fill="url(#paint10_radial_9_6471)"/>
<path d="M3.04991 2.48777C4.88207 0.802552 7.28865 -0.0825897 9.75314 0.0223111C12.2176 0.127212 14.5436 1.2138 16.2319 3.04885C16.2319 3.04885 12.4185 6.99163 11.0869 8.05619C11.0869 8.05619 10.2606 9.04188 10.3467 9.26936C10.6143 9.91533 15.792 16.0904 15.789 16.0904L15.6582 16.2148L15.6017 16.2663C11.8507 19.6025 5.95974 19.3598 2.56543 15.6385C1.75024 14.7429 1.11606 13.6922 0.699171 12.5464C0.282281 11.4005 0.0908607 10.182 0.135858 8.96062C0.180855 7.73922 0.461386 6.53886 0.961406 5.42819C1.46143 4.31751 2.17113 3.31832 3.04991 2.48777Z" fill="url(#paint11_radial_9_6471)"/>
<path d="M3.05551 2.48457C4.88774 0.801588 7.29324 -0.0818852 9.75632 0.0235689C12.2194 0.129023 14.5439 1.21501 16.2315 3.0487C16.2315 3.0487 12.5697 6.86106 11.1251 8.02874C11.1251 8.02874 10.3345 8.99927 10.4297 9.2419C10.7269 9.95161 15.7798 16.0629 15.7798 16.066L15.6489 16.1903C15.6489 16.1903 15.5984 16.2358 15.5954 16.2419C11.8504 19.5781 5.96238 19.3142 2.574 15.6049C-0.814364 11.8957 -0.644945 5.90873 3.05551 2.48457Z" fill="url(#paint12_radial_9_6471)"/>
<path d="M3.05875 2.47846C4.89158 0.797156 7.29688 -0.0846875 9.75921 0.0218939C12.2215 0.128475 14.5451 1.215 16.2318 3.04864C16.2318 3.04864 12.7185 6.73969 11.1789 7.99532C11.1789 7.99532 10.421 8.94765 10.525 9.20848C10.8371 9.97275 15.78 16.0265 15.78 16.0295L15.6492 16.1508L15.5927 16.2024C11.8447 19.5173 5.94481 19.2595 2.58022 15.5594C-0.784368 11.8592 -0.632784 5.89351 3.05875 2.47846Z" fill="url(#paint13_radial_9_6471)"/>
<path d="M3.06479 2.47551C4.89768 0.79644 7.30191 -0.0837366 9.76285 0.0233977C12.2238 0.130532 14.5458 1.21647 16.2319 3.04873C16.2319 3.04873 12.8702 6.62757 11.2058 7.97418C11.2058 7.97418 10.4836 8.91135 10.5935 9.18734C10.9293 10.0032 15.7534 15.9992 15.7534 16.0023L15.6225 16.1236L15.566 16.1751C11.8448 19.478 5.94489 19.2111 2.58626 15.523C-0.772393 11.835 -0.620807 5.87844 3.06479 2.47551Z" fill="url(#paint14_radial_9_6471)"/>
<path d="M3.0674 2.47241C4.90051 0.794635 7.30432 -0.0844442 9.76453 0.0232503C12.2247 0.130945 14.5459 1.21686 16.2315 3.04866C16.2315 3.04866 13.0185 6.51224 11.2441 7.94681C11.2441 7.94681 10.5575 8.85668 10.6764 9.15997C11.033 10.0244 15.753 15.9719 15.753 15.9749L15.6252 16.0963L15.5687 16.1478C11.8415 19.4264 5.94454 19.1655 2.5948 15.4836C-0.75492 11.8016 -0.612252 5.86623 3.0674 2.47241Z" fill="url(#paint15_radial_9_6471)"/>
<path d="M3.07357 2.46646C4.90795 0.791834 7.31124 -0.0846525 9.77032 0.0241488C12.2294 0.13295 14.5493 1.21842 16.2347 3.04877C16.2347 3.04877 13.1703 6.38498 11.2948 7.91963C11.2948 7.91963 10.6439 8.82951 10.7687 9.13279C11.1373 10.0609 15.7532 15.9417 15.7353 15.9448L15.6046 16.066C15.5872 16.0848 15.5683 16.102 15.5481 16.1176C11.8417 19.3992 5.94476 19.1232 2.60395 15.4504C-0.736857 11.7775 -0.59419 5.85118 3.07357 2.46646Z" fill="url(#paint16_radial_9_6471)"/>
<path d="M3.07666 2.46353C4.91323 0.791419 7.31797 -0.0812336 9.77685 0.0321172C12.2356 0.145468 14.5535 1.23582 16.2348 3.07011C16.2348 3.07011 13.319 6.27893 11.3217 7.90154C11.3217 7.90154 10.7065 8.78715 10.8402 9.1147C11.2414 10.1004 15.7266 15.9267 15.7236 15.9296C15.7206 15.9327 15.6136 16.0358 15.5928 16.0509L15.5393 16.1026C11.8389 19.3599 5.94487 19.0687 2.61001 15.4141C-0.724856 11.7594 -0.594076 5.83612 3.07666 2.46353Z" fill="url(#paint17_radial_9_6471)"/>
<path d="M3.08253 2.46041C4.91845 0.789405 7.32206 -0.0825966 9.77965 0.0307496C12.2373 0.144096 14.554 1.2338 16.2348 3.06699C16.2348 3.06699 13.4705 6.16966 11.3603 7.87718C11.3603 7.87718 10.7807 8.7446 10.9204 9.09034C11.3454 10.1307 15.7176 15.8992 15.7116 15.9023L15.5839 16.0235L15.5273 16.0752C11.8358 19.3204 5.94481 19.0232 2.61886 15.3775C-0.707094 11.732 -0.579287 5.82087 3.08253 2.46041Z" fill="url(#paint18_radial_9_6471)"/>
<path d="M3.08546 2.44214C4.92155 0.772788 7.32435 -0.0981654 9.78105 0.0151626C12.2377 0.128491 14.5537 1.21713 16.2347 3.04873C16.2347 3.04873 13.6191 6.03615 11.4018 7.83162C11.4018 7.83162 10.8549 8.68084 11.0035 9.04479C11.4494 10.1397 15.7057 15.8537 15.7027 15.8568L15.5719 15.978L15.5155 16.0266C11.8358 19.2809 5.94476 18.9746 2.62476 15.3442C-0.695248 11.7137 -0.567441 5.80564 3.08546 2.44214Z" fill="url(#paint19_radial_9_6471)"/>
<path d="M3.09118 2.44225C4.92663 0.774009 7.32829 -0.0962935 9.78376 0.0170299C12.2393 0.130354 14.5541 1.21833 16.2345 3.04883C14.7568 4.75853 13.1541 6.35133 11.4402 7.81354C11.4402 7.81354 10.9291 8.64759 11.0865 9.02671C11.5532 10.1762 15.6935 15.8295 15.6905 15.8356L15.5628 15.9539L15.5063 16.0054C11.8326 19.2415 5.94455 18.9291 2.63345 15.3079C-0.677633 11.6866 -0.558743 5.77846 3.09118 2.44225Z" fill="url(#paint20_radial_9_6471)"/>
<path d="M3.09411 2.44221C4.9299 0.7747 7.3314 -0.0951205 9.78665 0.0181927C12.2419 0.131506 14.5566 1.21899 16.2374 3.0488C14.7805 4.75382 13.19 6.33512 11.4818 7.77711C11.4818 7.77711 11.0092 8.59295 11.1846 8.99027C11.675 10.2034 15.7024 15.793 15.6964 15.7961L15.5687 15.9174L15.5122 15.969C11.8325 19.199 5.9445 18.8806 2.63936 15.2714C-0.665784 11.6623 -0.546894 5.77842 3.09411 2.44221Z" fill="url(#paint21_radial_9_6471)"/>
<path d="M3.1003 2.44226C4.93609 0.777308 7.33615 -0.0909023 9.78973 0.0223856C12.2433 0.135674 14.5567 1.22151 16.2377 3.04884C14.8036 4.75508 13.2241 6.32824 11.5177 7.74985C11.5177 7.74985 11.0808 8.55055 11.2502 8.96303C11.7615 10.2338 15.6729 15.787 15.6699 15.787C15.667 15.787 15.5659 15.8871 15.5392 15.9084L15.4857 15.9569C11.8298 19.1597 5.94474 18.82 2.64852 15.2351C-0.647712 11.6502 -0.537739 5.77846 3.1003 2.44226Z" fill="url(#paint22_radial_9_6471)"/>
<path d="M3.10323 2.4422C4.93886 0.778159 7.33827 -0.0894865 9.79113 0.0237938C12.244 0.137074 14.5568 1.22234 16.2376 3.04878C14.8267 4.75811 13.2592 6.32616 11.5563 7.73159C11.5563 7.73159 11.1551 8.51408 11.3304 8.94476C11.8684 10.258 15.6639 15.7446 15.6581 15.7476L15.5302 15.8659L15.4737 15.9174C11.8268 19.1232 5.94471 18.7866 2.65739 15.1987C-0.629918 11.6107 -0.525889 5.74806 3.10323 2.4422Z" fill="url(#paint23_radial_9_6471)"/>
<path d="M3.10619 2.44213C4.94166 0.77901 7.34042 -0.0880708 9.79262 0.0252021C12.2448 0.138475 14.5569 1.22317 16.2376 3.04871C14.8508 4.76105 13.2939 6.32222 11.592 7.70726C11.592 7.70726 11.2264 8.47156 11.4107 8.92042C11.9694 10.2883 15.6491 15.7141 15.6461 15.7202L15.5154 15.8385L15.4589 15.8901C11.8268 19.0807 5.9447 18.738 2.67521 15.1622C-0.594265 11.5864 -0.514014 5.73283 3.10619 2.44213Z" fill="url(#paint24_radial_9_6471)"/>
<path d="M3.11191 2.44221C4.94706 0.780927 7.34453 -0.0850257 9.79524 0.0282322C12.246 0.14149 14.5569 1.22504 16.2374 3.04879C14.8766 4.76172 13.3334 6.315 11.6363 7.68005C11.6363 7.68005 11.3034 8.42917 11.4966 8.89321C12.0911 10.3156 15.6578 15.687 15.637 15.693L15.5092 15.8112L15.4527 15.8598C11.8236 19.0413 5.94446 18.6895 2.67499 15.1258C-0.594495 11.5622 -0.505328 5.71776 3.11191 2.44221Z" fill="url(#paint25_radial_9_6471)"/>
<path d="M3.11483 2.44212C4.95014 0.782475 7.34682 -0.0824368 9.79655 0.0308032C12.2464 0.144043 14.5565 1.22653 16.2373 3.0487C14.9039 4.76534 13.372 6.31121 11.6749 7.65267C11.6749 7.65267 11.3777 8.3836 11.5769 8.86583C12.1713 10.3429 15.631 15.6565 15.625 15.6595C15.6191 15.6626 15.5269 15.7535 15.4973 15.7778L15.4408 15.8294C11.8236 19.0018 5.94442 18.6439 2.67493 15.0893C-0.594545 11.5348 -0.493488 5.7025 3.11483 2.44212Z" fill="url(#paint26_radial_9_6471)"/>
<path d="M3.12101 2.424C4.95841 0.767563 7.35576 -0.0936161 9.80485 0.0230155C12.254 0.139647 14.5623 1.22492 16.2406 3.04878C16.2406 3.04878 14.8197 5.11116 11.7138 7.62544C11.7138 7.62544 11.4522 8.34121 11.6603 8.83861C12.2844 10.355 15.6193 15.6293 15.6163 15.6324L15.4856 15.7507L15.4321 15.8022C11.8208 18.9625 5.94464 18.5955 2.67517 15.053C-0.594306 11.5106 -0.484332 5.68742 3.12101 2.424Z" fill="url(#paint27_radial_9_6471)"/>
<path d="M3.12397 2.41793C4.96229 0.763896 7.35928 -0.09519 9.80747 0.0225562C12.2556 0.140303 14.5628 1.22563 16.2406 3.04878C16.2406 3.04878 14.9714 4.98378 11.7524 7.59815C11.6325 7.99327 11.6325 8.41617 11.7524 8.81131C12.4004 10.3975 15.6163 15.5959 15.6163 15.602L15.4886 15.7203L15.4321 15.7688C11.8178 18.9231 5.94464 18.55 2.69597 15.0196C-0.552704 11.4893 -0.472453 5.67528 3.12397 2.41793Z" fill="url(#paint28_radial_9_6471)"/>
<path d="M3.13 2.41481C4.96771 0.761539 7.36395 -0.0968469 9.8112 0.0214718C12.2584 0.13979 14.5643 1.22552 16.2407 3.04869C16.2407 3.04869 15.1201 4.86844 11.7822 7.55863C11.6772 7.95765 11.6886 8.37927 11.815 8.77179C12.4837 10.4338 15.5986 15.5776 15.5926 15.5837L15.4649 15.702L15.4114 15.7506C11.8179 18.8835 5.94472 18.5166 2.702 14.9832C-0.540733 11.4499 -0.460482 5.66002 3.13 2.41481Z" fill="url(#paint29_radial_9_6471)"/>
<path d="M3.13314 2.41176C4.97107 0.759784 7.36688 -0.0975109 9.81335 0.0213664C12.2599 0.140243 14.565 1.22597 16.2407 3.04867C16.2407 3.04867 15.2719 4.76226 11.83 7.54648C11.7472 7.95031 11.7729 8.36947 11.9043 8.75964C12.5968 10.4551 15.5898 15.5412 15.5839 15.5472L15.4561 15.6626L15.3996 15.7141C11.8151 18.8441 5.94489 18.4529 2.71109 14.9468C-0.573251 11.3922 -0.451389 5.64484 3.13314 2.41176Z" fill="url(#paint30_radial_9_6471)"/>
<path d="M3.13871 2.40583C4.97738 0.757164 7.37218 -0.0974797 9.81708 0.0225036C12.2619 0.142487 14.5653 1.22769 16.2404 3.04881C16.2404 3.04881 15.4201 4.63502 11.8682 7.50718C11.8069 7.91533 11.8478 8.33267 11.9871 8.72035C12.7004 10.4704 15.5776 15.5019 15.5716 15.5049L15.4439 15.6232L15.3874 15.6718C11.8207 18.7805 5.95047 18.4014 2.71665 14.8893C-0.517162 11.3771 -0.439884 5.62981 3.13871 2.40583Z" fill="url(#paint31_radial_9_6471)"/>
<path d="M3.14211 2.40258C4.98148 0.755014 7.37635 -0.0986288 9.821 0.0219103C12.2656 0.142449 14.5687 1.22774 16.2438 3.04859C16.2438 3.04859 15.5721 4.51651 11.9103 7.47966C11.8701 7.8913 11.9251 8.30679 12.0708 8.69283C12.8049 10.5217 15.5661 15.4835 15.5602 15.4987L15.4324 15.6169L15.3789 15.6655C11.8122 18.7621 5.94495 18.3587 2.726 14.8769C-0.543478 11.3406 -0.42756 5.61442 3.14211 2.40258Z" fill="url(#paint32_radial_9_6471)"/>
<path d="M3.14806 2.39971C4.98715 0.753634 7.3811 -0.0988334 9.82455 0.0222665C12.268 0.143367 14.5697 1.22856 16.2438 3.04875C16.2438 3.04875 15.7207 4.41356 11.9489 7.46467C11.9321 7.87905 12.0009 8.29241 12.151 8.67783C12.9089 10.5491 15.5572 15.4655 15.5513 15.4837L15.4234 15.599L15.367 15.6474C11.8092 18.7229 5.94495 18.3134 2.73194 14.8377C-0.528617 11.3134 -0.418643 5.59944 3.14806 2.39971Z" fill="url(#paint33_radial_9_6471)"/>
<path d="M3.15079 2.39363C4.99078 0.749954 7.38438 -0.100427 9.82688 0.021786C12.2694 0.143999 14.57 1.22926 16.2435 3.04874C16.2435 3.04874 15.872 4.29527 11.9873 7.43735C11.9937 7.85893 12.0773 8.27554 12.2339 8.66569C13.0157 10.5794 15.545 15.4382 15.5392 15.4443L15.4113 15.5595L15.3578 15.608C11.809 18.6834 5.94471 18.2648 2.74062 14.8012C-0.513999 11.2891 -0.406998 5.58425 3.15079 2.39363Z" fill="url(#paint34_radial_9_6471)"/>
<path d="M3.15678 2.39069C4.9978 0.753473 7.38926 -0.0914806 9.82828 0.0335233C12.2673 0.158527 14.5637 1.24374 16.2347 3.06096C16.2347 3.06096 16.0118 4.18011 12.017 7.41015C12.0516 7.83311 12.1519 8.24775 12.3143 8.63849C13.1198 10.6099 15.5362 15.411 15.5303 15.417L15.4024 15.5323C15.3823 15.5468 15.3634 15.563 15.346 15.5809C11.806 18.6441 5.94475 18.2133 2.74957 14.765C-0.499096 11.2619 -0.398039 5.57221 3.15678 2.39069Z" fill="url(#paint35_radial_9_6471)"/>
<path d="M3.15946 2.38773C5.00054 0.75017 7.39238 -0.0947294 9.83164 0.0308521C12.2708 0.156434 14.5672 1.2427 16.2374 3.06103C16.2374 3.06103 16.1661 4.06493 12.0584 7.38293C12.1167 7.80634 12.2286 8.22024 12.3913 8.61429C13.2236 10.6312 15.524 15.3807 15.5181 15.3868L15.3903 15.502C15.3725 15.502 15.3517 15.5384 15.3338 15.5506C11.8027 18.6047 5.94447 18.171 2.75524 14.7287C-0.484517 11.2377 -0.386433 5.55712 3.15946 2.38773Z" fill="url(#paint36_radial_9_6471)"/>
<path d="M3.16553 2.38146C5.00799 0.746105 7.39996 -0.0967997 9.83873 0.0298907C12.2775 0.156581 14.5733 1.24301 16.2435 3.06083C16.2435 3.06083 16.3207 3.95858 12.1031 7.35846C12.1894 7.77982 12.3169 8.19132 12.4835 8.5868C13.3306 10.6674 15.5183 15.3532 15.5093 15.3593C15.5003 15.3653 15.4231 15.4411 15.3815 15.4746L15.3279 15.523C11.8058 18.5711 5.94459 18.1223 2.76428 14.6921C-0.472502 11.2103 -0.374417 5.54176 3.16553 2.38146Z" fill="url(#paint37_radial_9_6471)"/>
<path d="M3.16838 2.37854C5.01127 0.743225 7.40383 -0.0990979 9.84284 0.0287366C12.2819 0.156571 14.5773 1.2446 16.2463 3.06398C16.2463 3.06398 16.4722 3.8313 12.1446 7.33129C12.2557 7.75091 12.3948 8.16232 12.5607 8.56265C13.4316 10.6857 15.5032 15.326 15.4973 15.3321L15.3695 15.4473L15.313 15.4959C11.8027 18.5167 5.94446 18.0738 2.7701 14.6588C-0.457762 11.1831 -0.365623 5.5267 3.16838 2.37854Z" fill="url(#paint38_radial_9_6471)"/>
<path d="M3.17468 2.37553C5.01794 0.740597 7.41072 -0.101199 9.84975 0.0272009C12.2888 0.155601 14.584 1.24419 16.2526 3.064C16.2526 3.064 16.6212 3.71305 12.1865 7.29491C12.1865 7.29491 12.3501 7.80444 12.6472 8.52627C13.5389 10.716 15.4946 15.2897 15.4888 15.2957L15.3609 15.4109L15.3074 15.4565C11.8001 18.4864 5.94481 18.0284 2.77936 14.6225C-0.442559 11.1558 -0.353392 5.51156 3.17468 2.37553Z" fill="url(#paint39_radial_9_6471)"/>
<path d="M15.474 15.2774C12.0024 18.462 6.00141 18.0404 2.78543 14.5738C-0.430547 11.1071 -0.344351 5.47507 3.17776 2.35723C5.02209 0.72378 7.41516 -0.116494 9.85404 0.0130267C12.2928 0.142548 14.5875 1.23178 16.2557 3.05177C16.2557 3.05177 16.7818 3.58556 12.2312 7.26449C12.2224 7.27661 15.4859 15.2683 15.474 15.2774Z" fill="url(#paint40_radial_9_6471)"/>
<path d="M12.0914 7.37909C10.6677 8.57102 8.91705 9.97523 6.88105 11.5493C8.39354 13.2184 10.1526 14.6357 12.0944 15.7499C13.7618 16.6598 15.0666 16.8296 15.7057 16.2534C16.3447 15.6771 16.2674 14.3488 15.5243 12.6139C14.6446 10.7027 13.4872 8.9379 12.0914 7.37909Z" fill="url(#paint41_linear_9_6471)"/>
<path d="M12.219 7.26074L11.5057 7.86732C12.8119 9.33242 13.8976 10.9872 14.7276 12.7776C15.4558 14.4882 15.438 15.3465 15.2032 15.5618C14.9684 15.7771 13.9548 15.8317 12.3349 14.9552C10.5405 13.9169 8.91762 12.5965 7.52586 11.0428L6.72929 11.6493L6.91655 11.8344C10.2901 15.392 13.94 17.418 15.545 16.681C15.5925 16.6567 15.6401 16.6325 15.6847 16.6051H15.7025C15.7646 16.5658 15.8233 16.5212 15.8779 16.4717C15.9357 16.4183 15.9885 16.3594 16.0354 16.2958C17.0847 14.8915 15.4915 11.1095 12.3171 7.40329L12.219 7.26074Z" fill="#84EEB1"/>
</g>
</g>
<defs>
<radialGradient id="paint0_radial_9_6471" cx="0" cy="0" r="1" gradientUnits="userSpaceOnUse" gradientTransform="translate(11.7313 1.07898) rotate(-2.33731) scale(42.7914 32.3105)">
<stop stop-color="#03BA50"/>
<stop offset="0.8" stop-color="#01B64E"/>
</radialGradient>
<radialGradient id="paint1_radial_9_6471" cx="0" cy="0" r="1" gradientUnits="userSpaceOnUse" gradientTransform="translate(11.7267 1.07558) rotate(-2.33731) scale(42.7021 32.2431)">
<stop stop-color="#04BC50"/>
<stop offset="0.8" stop-color="#01B34D"/>
</radialGradient>
<radialGradient id="paint2_radial_9_6471" cx="0" cy="0" r="1" gradientUnits="userSpaceOnUse" gradientTransform="translate(11.717 1.08382) rotate(-2.33731) scale(42.6129 32.1757)">
<stop stop-color="#06BD51"/>
<stop offset="0.72" stop-color="#02B24C"/>
<stop offset="0.8" stop-color="#01B04B"/>
</radialGradient>
<radialGradient id="paint3_radial_9_6471" cx="0" cy="0" r="1" gradientUnits="userSpaceOnUse" gradientTransform="translate(11.7008 1.09744) rotate(-2.33731) scale(42.5238 32.1084)">
<stop stop-color="#08BF52"/>
<stop offset="0.56" stop-color="#04B44D"/>
<stop offset="0.8" stop-color="#01AD4A"/>
</radialGradient>
<radialGradient id="paint4_radial_9_6471" cx="0" cy="0" r="1" gradientUnits="userSpaceOnUse" gradientTransform="translate(11.6847 1.11064) rotate(-2.33731) scale(42.4345 32.0409)">
<stop stop-color="#0AC053"/>
<stop offset="0.48" stop-color="#05B54E"/>
<stop offset="0.8" stop-color="#01AA49"/>
</radialGradient>
<radialGradient id="paint5_radial_9_6471" cx="0" cy="0" r="1" gradientUnits="userSpaceOnUse" gradientTransform="translate(11.6661 1.14337) rotate(-1.75341) scale(42.3269 31.97)">
<stop stop-color="#0BC253"/>
<stop offset="0.42" stop-color="#07B74E"/>
<stop offset="0.8" stop-color="#01A848"/>
</radialGradient>
<radialGradient id="paint6_radial_9_6471" cx="0" cy="0" r="1" gradientUnits="userSpaceOnUse" gradientTransform="translate(11.6413 1.1518) rotate(-1.75341) scale(42.2377 31.9026)">
<stop stop-color="#0DC354"/>
<stop offset="0.37" stop-color="#08B84F"/>
<stop offset="0.8" stop-color="#01A546"/>
</radialGradient>
<radialGradient id="paint7_radial_9_6471" cx="0" cy="0" r="1" gradientUnits="userSpaceOnUse" gradientTransform="translate(11.9551 1.16019) rotate(-1.75341) scale(42.1484 31.8224)">
<stop stop-color="#0FC555"/>
<stop offset="0.33" stop-color="#0ABA50"/>
<stop offset="0.8" stop-color="#01A245"/>
</radialGradient>
<radialGradient id="paint8_radial_9_6471" cx="0" cy="0" r="1" gradientUnits="userSpaceOnUse" gradientTransform="translate(11.924 1.17564) rotate(-1.73606) scale(42.4794 31.755)">
<stop stop-color="#11C656"/>
<stop offset="0.3" stop-color="#0CBB51"/>
<stop offset="0.8" stop-color="#019F44"/>
</radialGradient>
<radialGradient id="paint9_radial_9_6471" cx="0" cy="0" r="1" gradientUnits="userSpaceOnUse" gradientTransform="translate(11.9133 1.19111) rotate(-1.73605) scale(42.3893 31.6877)">
<stop stop-color="#12C856"/>
<stop offset="0.28" stop-color="#0EBD51"/>
<stop offset="0.77" stop-color="#029E44"/>
<stop offset="0.8" stop-color="#019C43"/>
</radialGradient>
<radialGradient id="paint10_radial_9_6471" cx="0" cy="0" r="1" gradientUnits="userSpaceOnUse" gradientTransform="translate(11.9031 1.212) rotate(-1.73605) scale(42.2963 31.6181)">
<stop stop-color="#14C957"/>
<stop offset="0.26" stop-color="#0FBE52"/>
<stop offset="0.72" stop-color="#049F44"/>
<stop offset="0.8" stop-color="#019941"/>
</radialGradient>
<radialGradient id="paint11_radial_9_6471" cx="0" cy="0" r="1" gradientUnits="userSpaceOnUse" gradientTransform="translate(11.8839 1.23796) rotate(-1.73606) scale(42.2061 31.5508)">
<stop stop-color="#16CB58"/>
<stop offset="0.24" stop-color="#11C053"/>
<stop offset="0.66" stop-color="#06A145"/>
<stop offset="0.8" stop-color="#019640"/>
</radialGradient>
<radialGradient id="paint12_radial_9_6471" cx="0" cy="0" r="1" gradientUnits="userSpaceOnUse" gradientTransform="translate(11.8614 1.26592) rotate(-1.73605) scale(42.116 31.4834)">
<stop stop-color="#18CC59"/>
<stop offset="0.23" stop-color="#13C154"/>
<stop offset="0.62" stop-color="#07A246"/>
<stop offset="0.8" stop-color="#01933F"/>
</radialGradient>
<radialGradient id="paint13_radial_9_6471" cx="0" cy="0" r="1" gradientUnits="userSpaceOnUse" gradientTransform="translate(11.8393 1.29944) rotate(-1.73606) scale(42.0229 31.4138)">
<stop stop-color="#19CD59"/>
<stop offset="0.21" stop-color="#15C254"/>
<stop offset="0.59" stop-color="#09A347"/>
<stop offset="0.8" stop-color="#01903E"/>
</radialGradient>
<radialGradient id="paint14_radial_9_6471" cx="0" cy="0" r="1" gradientUnits="userSpaceOnUse" gradientTransform="translate(11.8112 1.33553) rotate(-1.73605) scale(41.9328 31.3464)">
<stop stop-color="#1BCF5A"/>
<stop offset="0.2" stop-color="#17C455"/>
<stop offset="0.56" stop-color="#0BA547"/>
<stop offset="0.8" stop-color="#018D3C"/>
</radialGradient>
<radialGradient id="paint15_radial_9_6471" cx="0" cy="0" r="1" gradientUnits="userSpaceOnUse" gradientTransform="translate(11.7797 1.20367) rotate(-1.15757) scale(41.8321 31.2787)">
<stop stop-color="#1DD05B"/>
<stop offset="0.19" stop-color="#18C556"/>
<stop offset="0.54" stop-color="#0CA648"/>
<stop offset="0.8" stop-color="#018B3B"/>
</radialGradient>
<radialGradient id="paint16_radial_9_6471" cx="0" cy="0" r="1" gradientUnits="userSpaceOnUse" gradientTransform="translate(11.7458 1.23116) rotate(-1.15757) scale(41.7389 31.2091)">
<stop stop-color="#1ED25B"/>
<stop offset="0.18" stop-color="#1AC756"/>
<stop offset="0.51" stop-color="#0EA848"/>
<stop offset="0.8" stop-color="#01883A"/>
</radialGradient>
<radialGradient id="paint17_radial_9_6471" cx="0" cy="0" r="1" gradientUnits="userSpaceOnUse" gradientTransform="translate(11.7119 1.25788) rotate(-1.15757) scale(41.6488 31.1417)">
<stop stop-color="#20D35C"/>
<stop offset="0.18" stop-color="#1BC857"/>
<stop offset="0.49" stop-color="#0FA949"/>
<stop offset="0.8" stop-color="#018539"/>
</radialGradient>
<radialGradient id="paint18_radial_9_6471" cx="0" cy="0" r="1" gradientUnits="userSpaceOnUse" gradientTransform="translate(11.6719 1.29516) rotate(-1.15757) scale(41.5589 31.0744)">
<stop stop-color="#22D55D"/>
<stop offset="0.17" stop-color="#1DCA58"/>
<stop offset="0.47" stop-color="#11AB4A"/>
<stop offset="0.8" stop-color="#018237"/>
</radialGradient>
<radialGradient id="paint19_radial_9_6471" cx="0" cy="0" r="1" gradientUnits="userSpaceOnUse" gradientTransform="translate(11.6259 1.32955) rotate(-1.15757) scale(41.4657 31.0048)">
<stop stop-color="#24D65E"/>
<stop offset="0.16" stop-color="#1FCB59"/>
<stop offset="0.45" stop-color="#13AC4B"/>
<stop offset="0.8" stop-color="#017F36"/>
</radialGradient>
<radialGradient id="paint20_radial_9_6471" cx="0" cy="0" r="1" gradientUnits="userSpaceOnUse" gradientTransform="translate(11.5767 1.37176) rotate(-1.15757) scale(41.3757 30.9375)">
<stop stop-color="#25D85E"/>
<stop offset="0.15" stop-color="#20CD59"/>
<stop offset="0.43" stop-color="#14AE4B"/>
<stop offset="0.79" stop-color="#017D36"/>
<stop offset="0.8" stop-color="#007C35"/>
</radialGradient>
<radialGradient id="paint21_radial_9_6471" cx="0" cy="0" r="1" gradientUnits="userSpaceOnUse" gradientTransform="translate(12.4763 1.41921) rotate(-1.15757) scale(41.2856 30.8618)">
<stop stop-color="#27D95F"/>
<stop offset="0.15" stop-color="#22CE5A"/>
<stop offset="0.42" stop-color="#16AF4C"/>
<stop offset="0.77" stop-color="#027E36"/>
<stop offset="0.8" stop-color="#007934"/>
</radialGradient>
<radialGradient id="paint22_radial_9_6471" cx="0" cy="0" r="1" gradientUnits="userSpaceOnUse" gradientTransform="translate(12.1691 1.46827) rotate(-1.14622) scale(41.6002 30.7923)">
<stop stop-color="#29DB60"/>
<stop offset="0.14" stop-color="#24D05B"/>
<stop offset="0.4" stop-color="#18B14D"/>
<stop offset="0.74" stop-color="#048037"/>
<stop offset="0.8" stop-color="#007632"/>
</radialGradient>
<radialGradient id="paint23_radial_9_6471" cx="0" cy="0" r="1" gradientUnits="userSpaceOnUse" gradientTransform="translate(12.1327 1.52267) rotate(-1.14622) scale(41.5092 30.725)">
<stop stop-color="#2BDC61"/>
<stop offset="0.14" stop-color="#26D15C"/>
<stop offset="0.39" stop-color="#1AB24E"/>
<stop offset="0.71" stop-color="#068138"/>
<stop offset="0.8" stop-color="#007331"/>
</radialGradient>
<radialGradient id="paint24_radial_9_6471" cx="0" cy="0" r="1" gradientUnits="userSpaceOnUse" gradientTransform="translate(12.0964 1.58242) rotate(-1.14622) scale(41.4152 30.6554)">
<stop stop-color="#2CDE61"/>
<stop offset="0.13" stop-color="#27D35C"/>
<stop offset="0.37" stop-color="#1BB44E"/>
<stop offset="0.69" stop-color="#088339"/>
<stop offset="0.8" stop-color="#007030"/>
</radialGradient>
<radialGradient id="paint25_radial_9_6471" cx="0" cy="0" r="1" gradientUnits="userSpaceOnUse" gradientTransform="translate(12.0568 1.27885) rotate(-0.573168) scale(41.3181 30.5886)">
<stop stop-color="#2EDF62"/>
<stop offset="0.13" stop-color="#29D45D"/>
<stop offset="0.37" stop-color="#1DB54F"/>
<stop offset="0.67" stop-color="#098439"/>
<stop offset="0.8" stop-color="#006E2F"/>
</radialGradient>
<radialGradient id="paint26_radial_9_6471" cx="0" cy="0" r="1" gradientUnits="userSpaceOnUse" gradientTransform="translate(12.0113 1.32622) rotate(-0.573168) scale(41.2271 30.5213)">
<stop stop-color="#30E163"/>
<stop offset="0.13" stop-color="#2BD65E"/>
<stop offset="0.35" stop-color="#1FB750"/>
<stop offset="0.65" stop-color="#0B8639"/>
<stop offset="0.8" stop-color="#006B2D"/>
</radialGradient>
<radialGradient id="paint27_radial_9_6471" cx="0" cy="0" r="1" gradientUnits="userSpaceOnUse" gradientTransform="translate(11.9661 1.37907) rotate(-0.573169) scale(41.1331 30.4517)">
<stop stop-color="#31E263"/>
<stop offset="0.12" stop-color="#2CD75E"/>
<stop offset="0.34" stop-color="#20B850"/>
<stop offset="0.63" stop-color="#0D873A"/>
<stop offset="0.8" stop-color="#00682C"/>
</radialGradient>
<radialGradient id="paint28_radial_9_6471" cx="0" cy="0" r="1" gradientUnits="userSpaceOnUse" gradientTransform="translate(11.9146 1.43415) rotate(-0.573168) scale(41.0421 30.3843)">
<stop stop-color="#33E364"/>
<stop offset="0.12" stop-color="#2ED85F"/>
<stop offset="0.34" stop-color="#22B951"/>
<stop offset="0.62" stop-color="#0E883B"/>
<stop offset="0.8" stop-color="#00652B"/>
</radialGradient>
<radialGradient id="paint29_radial_9_6471" cx="0" cy="0" r="1" gradientUnits="userSpaceOnUse" gradientTransform="translate(11.8601 1.49369) rotate(-0.573168) scale(40.9482 30.3147)">
<stop stop-color="#35E565"/>
<stop offset="0.12" stop-color="#30DA60"/>
<stop offset="0.33" stop-color="#24BB52"/>
<stop offset="0.6" stop-color="#108A3C"/>
<stop offset="0.8" stop-color="#00622A"/>
</radialGradient>
<radialGradient id="paint30_radial_9_6471" cx="0" cy="0" r="1" gradientUnits="userSpaceOnUse" gradientTransform="translate(11.8056 1.55557) rotate(-0.573168) scale(40.8572 30.2474)">
<stop stop-color="#37E666"/>
<stop offset="0.11" stop-color="#32DB61"/>
<stop offset="0.32" stop-color="#26BC53"/>
<stop offset="0.59" stop-color="#128B3C"/>
<stop offset="0.8" stop-color="#005F28"/>
</radialGradient>
<radialGradient id="paint31_radial_9_6471" cx="0" cy="0" r="1" gradientUnits="userSpaceOnUse" gradientTransform="translate(11.7446 1.62297) rotate(-0.573168) scale(40.7632 30.1778)">
<stop stop-color="#38E866"/>
<stop offset="0.11" stop-color="#33DD61"/>
<stop offset="0.31" stop-color="#27BE53"/>
<stop offset="0.57" stop-color="#148D3D"/>
<stop offset="0.8" stop-color="#005C27"/>
</radialGradient>
<radialGradient id="paint32_radial_9_6471" cx="0" cy="0" r="1" gradientUnits="userSpaceOnUse" gradientTransform="translate(11.6814 1.69454) rotate(-0.573169) scale(40.6722 30.1105)">
<stop stop-color="#3AE967"/>
<stop offset="0.11" stop-color="#35DE62"/>
<stop offset="0.3" stop-color="#29BF54"/>
<stop offset="0.56" stop-color="#158E3E"/>
<stop offset="0.8" stop-color="#005926"/>
</radialGradient>
<radialGradient id="paint33_radial_9_6471" cx="0" cy="0" r="1" gradientUnits="userSpaceOnUse" gradientTransform="translate(11.6177 1.76881) rotate(-0.573168) scale(40.5813 30.0432)">
<stop stop-color="#3CEB68"/>
<stop offset="0.11" stop-color="#37E063"/>
<stop offset="0.29" stop-color="#2BC155"/>
<stop offset="0.54" stop-color="#17903F"/>
<stop offset="0.8" stop-color="#005625"/>
</radialGradient>
<radialGradient id="paint34_radial_9_6471" cx="0" cy="0" r="1" gradientUnits="userSpaceOnUse" gradientTransform="translate(11.5447 1.84825) rotate(-0.573168) scale(40.4873 29.9736)">
<stop stop-color="#3EEC69"/>
<stop offset="0.1" stop-color="#39E164"/>
<stop offset="0.29" stop-color="#2DC256"/>
<stop offset="0.53" stop-color="#19913F"/>
<stop offset="0.8" stop-color="#005323"/>
</radialGradient>
<radialGradient id="paint35_radial_9_6471" cx="0" cy="0" r="1" gradientUnits="userSpaceOnUse" gradientTransform="translate(11.472 1.37642) scale(40.3943 29.9037)">
<stop stop-color="#3FEE69"/>
<stop offset="0.1" stop-color="#3AE364"/>
<stop offset="0.28" stop-color="#2EC456"/>
<stop offset="0.52" stop-color="#1A9340"/>
<stop offset="0.8" stop-color="#005122"/>
</radialGradient>
<radialGradient id="paint36_radial_9_6471" cx="0" cy="0" r="1" gradientUnits="userSpaceOnUse" gradientTransform="translate(12.4253 1.44285) scale(40.6955 29.8342)">
<stop stop-color="#41EF6A"/>
<stop offset="0.1" stop-color="#3CE465"/>
<stop offset="0.28" stop-color="#30C557"/>
<stop offset="0.51" stop-color="#1C9441"/>
<stop offset="0.79" stop-color="#015022"/>
<stop offset="0.8" stop-color="#004E21"/>
</radialGradient>
<radialGradient id="paint37_radial_9_6471" cx="0" cy="0" r="1" gradientUnits="userSpaceOnUse" gradientTransform="translate(12.3667 1.51429) scale(40.6066 29.7691)">
<stop stop-color="#43F16B"/>
<stop offset="0.1" stop-color="#3EE666"/>
<stop offset="0.27" stop-color="#32C758"/>
<stop offset="0.5" stop-color="#1E9642"/>
<stop offset="0.77" stop-color="#035223"/>
<stop offset="0.8" stop-color="#004B20"/>
</radialGradient>
<radialGradient id="paint38_radial_9_6471" cx="0" cy="0" r="1" gradientUnits="userSpaceOnUse" gradientTransform="translate(12.3108 1.59053) scale(40.5148 29.7018)">
<stop stop-color="#45F26C"/>
<stop offset="0.1" stop-color="#40E767"/>
<stop offset="0.27" stop-color="#34C859"/>
<stop offset="0.49" stop-color="#209742"/>
<stop offset="0.76" stop-color="#055323"/>
<stop offset="0.8" stop-color="#00481E"/>
</radialGradient>
<radialGradient id="paint39_radial_9_6471" cx="0" cy="0" r="1" gradientUnits="userSpaceOnUse" gradientTransform="translate(12.2521 1.67195) scale(40.42 29.6322)">
<stop stop-color="#46F46C"/>
<stop offset="0.09" stop-color="#41E967"/>
<stop offset="0.26" stop-color="#35CA59"/>
<stop offset="0.48" stop-color="#229943"/>
<stop offset="0.74" stop-color="#065524"/>
<stop offset="0.8" stop-color="#00451D"/>
</radialGradient>
<radialGradient id="paint40_radial_9_6471" cx="0" cy="0" r="1" gradientUnits="userSpaceOnUse" gradientTransform="translate(12.1963 1.75774) scale(40.325 29.5627)">
<stop stop-color="#48F56D"/>
<stop offset="0.09" stop-color="#43EA68"/>
<stop offset="0.25" stop-color="#37CB5A"/>
<stop offset="0.47" stop-color="#239A44"/>
<stop offset="0.73" stop-color="#085625"/>
<stop offset="0.8" stop-color="#00421C"/>
</radialGradient>
<linearGradient id="paint41_linear_9_6471" x1="12.8523" y1="23.0137" x2="9.23423" y2="-2.41239" gradientUnits="userSpaceOnUse">
<stop offset="0.1" stop-color="#FF8475"/>
<stop offset="0.37" stop-color="#E84E43"/>
<stop offset="0.6" stop-color="#D6261F"/>
<stop offset="0.79" stop-color="#CC0E08"/>
<stop offset="0.9" stop-color="#C80500"/>
</linearGradient>
<clipPath id="clip0_9_6471">
<rect width="56" height="20" fill="white"/>
</clipPath>
</defs>
</svg>
